<?xml version="1.0" standalone="no"?>
<!DOCTYPE svg PUBLIC "-//W3C//DTD SVG 20010904//EN"
 "http://www.w3.org/TR/2001/REC-SVG-20010904/DTD/svg10.dtd">
<svg version="1.0" xmlns="http://www.w3.org/2000/svg"
 width="720.000000pt" height="720.000000pt" viewBox="0 0 720.000000 720.000000"
 preserveAspectRatio="xMidYMid meet">
<metadata>
Created by potrace 1.14, written by Peter Selinger 2001-2017
</metadata>
<g transform="translate(0.000000,720.000000) scale(0.100000,-0.100000)"
fill="#000000" stroke="none">
<path d="M0 6695 c0 -278 3 -505 6 -505 3 0 12 7 20 15 9 8 25 15 37 16 33 0
87 73 87 116 0 35 12 66 37 95 12 13 21 14 51 6 53 -15 72 -41 72 -102 0 -46
3 -53 30 -68 17 -9 40 -33 51 -53 12 -19 25 -35 30 -35 5 0 14 -10 19 -22 5
-13 9 -17 9 -10 1 6 10 12 22 12 11 0 18 -3 16 -7 -8 -15 30 -68 50 -71 19 -3
29 -21 39 -70 5 -27 -18 -72 -37 -72 -11 0 -24 -11 -31 -25 -6 -14 -15 -25
-19 -25 -14 0 -6 -53 10 -75 9 -11 24 -19 33 -17 13 2 16 -1 12 -12 -3 -8 -13
-16 -22 -18 -13 -2 -11 -9 11 -32 15 -16 27 -40 27 -53 0 -14 9 -38 21 -54 11
-16 18 -37 15 -46 -3 -10 -6 -40 -8 -66 -2 -49 -14 -69 -28 -47 -4 6 -18 10
-31 8 -24 -3 -36 4 -90 54 -23 21 -38 26 -67 23 -33 -3 -38 -1 -40 20 -1 12 5
28 13 35 20 17 19 31 -2 23 -17 -7 -17 -6 0 11 21 21 22 52 2 60 -8 3 -15 16
-15 29 0 13 -3 27 -7 31 -5 4 -8 13 -8 18 0 6 -6 13 -13 16 -7 2 -12 -5 -12
-17 0 -28 -26 -39 -82 -34 -26 2 -49 -1 -53 -7 -3 -5 -11 -10 -17 -10 -6 0 -9
3 -5 6 3 4 -5 23 -18 43 -14 19 -25 48 -25 64 0 15 -4 26 -9 22 -5 -3 -12 -1
-16 5 -4 6 -12 7 -18 3 -7 -4 -4 4 5 17 37 52 50 93 37 117 -7 13 -21 23 -32
23 -11 0 -29 7 -39 17 -17 16 -18 9 -18 -203 1 -216 1 -219 20 -196 10 12 20
27 22 32 2 5 24 13 49 16 61 8 88 -14 81 -69 -4 -39 -26 -53 -62 -42 -11 4
-20 2 -20 -4 0 -6 -5 -11 -11 -11 -5 0 -7 6 -3 13 6 9 5 9 -7 0 -11 -9 -19 -9
-26 -2 -5 5 -17 7 -26 3 -16 -6 -17 -171 -17 -2342 l0 -2337 35 35 c28 29 40
54 64 140 40 142 56 188 106 305 67 155 113 253 134 283 10 15 56 88 101 162
46 74 100 155 120 180 20 25 39 50 41 57 5 16 70 93 142 169 44 47 57 68 57
91 0 26 5 33 31 42 18 6 38 11 44 11 12 0 119 60 161 90 11 8 33 34 47 57 29
45 78 86 117 98 14 4 36 15 50 25 86 60 134 71 325 73 l130 2 90 42 c71 33
128 49 270 78 99 20 181 40 183 44 1 5 14 6 29 3 19 -4 31 1 44 19 28 36 24
49 -15 49 -61 0 -95 18 -102 55 -14 78 20 101 165 110 79 5 115 12 158 32 49
23 59 24 94 14 26 -8 44 -21 54 -41 25 -49 17 -88 -28 -137 l-20 -23 24 0 c14
0 31 -6 38 -12 10 -11 11 -10 6 5 -5 12 -2 17 11 17 11 0 32 7 48 15 23 12 31
13 37 3 8 -12 -39 -48 -62 -48 -6 0 -29 -15 -51 -34 -25 -22 -67 -43 -110 -56
-39 -12 -94 -35 -123 -51 -28 -16 -61 -29 -73 -29 -12 0 -22 -4 -22 -10 0 -16
56 -11 71 7 25 29 111 63 159 62 25 -1 36 -3 25 -6 -11 -2 -30 -6 -42 -9 -13
-2 -23 -9 -23 -14 0 -5 8 -7 17 -3 24 8 -76 -64 -106 -77 -14 -6 -35 -7 -55
-2 -17 5 -37 7 -43 5 -7 -3 -13 0 -13 6 0 6 -8 11 -18 11 -10 0 -23 5 -30 12
-7 7 -12 9 -12 5 0 -3 -23 5 -51 20 -45 22 -61 25 -118 21 -67 -5 -197 -52
-227 -83 -9 -8 -24 -15 -35 -15 -10 0 -19 -5 -19 -11 0 -6 7 -9 15 -5 19 7 19
1 -1 -18 -14 -14 -19 -14 -52 0 -46 20 -241 28 -220 9 18 -16 284 -175 292
-175 4 0 22 -12 41 -26 28 -21 37 -23 54 -14 23 12 28 1 9 -18 -9 -9 -7 -13 8
-18 10 -4 66 -37 124 -72 58 -36 116 -71 130 -79 l25 -13 -27 0 c-15 0 -31 6
-35 14 -4 8 -10 14 -13 13 -5 -1 -103 53 -169 94 -14 9 -29 14 -33 12 -5 -2
-8 0 -8 6 0 6 -15 18 -32 27 -18 9 -35 20 -38 23 -19 26 -94 58 -140 60 -12 1
-12 3 -2 10 10 6 9 10 -7 14 -12 3 -24 5 -27 5 -3 0 -18 11 -32 25 -33 31
-104 67 -131 67 -13 0 -18 5 -15 14 4 9 -4 15 -25 18 -16 2 -28 1 -26 -2 2 -4
-36 -6 -85 -6 -97 1 -144 -17 -70 -27 63 -8 159 -77 257 -185 48 -54 90 -99
93 -102 21 -18 190 -253 190 -263 0 -6 -12 6 -27 28 -14 21 -37 51 -49 65 -13
14 -23 29 -23 33 0 13 -35 36 -45 29 -5 -3 -7 2 -3 11 4 10 -1 18 -14 22 -10
4 -19 11 -19 16 0 13 -50 64 -77 78 -13 6 -23 18 -23 26 0 9 -10 15 -25 15
-22 0 -27 5 -24 27 0 3 -6 10 -15 15 -9 5 -16 16 -16 23 0 8 -5 15 -11 15 -6
0 -35 24 -64 52 -51 52 -86 78 -104 78 -5 0 24 -32 65 -72 41 -39 74 -76 74
-81 0 -6 -10 -1 -22 10 -13 11 -37 28 -54 36 -29 15 -49 41 -46 59 1 4 -8 10
-20 14 -33 10 -98 12 -98 3 0 -5 -9 -9 -21 -9 -36 0 -117 -43 -129 -68 -6 -14
-9 -26 -8 -27 2 -2 29 -8 61 -14 53 -10 113 -41 101 -53 -2 -3 16 -11 40 -18
25 -7 53 -21 63 -33 18 -19 17 -20 -4 -8 -28 14 -33 14 -33 -3 0 -8 -8 -16
-17 -18 -11 -3 -5 -6 14 -9 28 -5 31 -3 20 9 -10 13 -9 14 10 1 l22 -13 -21
-23 c-12 -13 -16 -23 -10 -23 7 0 12 5 12 10 0 19 39 10 45 -10 3 -11 12 -20
20 -20 7 0 23 -9 36 -20 21 -18 22 -19 4 -14 -50 15 -75 27 -75 38 -1 13 -40
-32 -40 -45 0 -5 5 -9 11 -9 6 0 32 -22 58 -49 27 -28 51 -48 54 -45 3 3 8 -4
12 -15 4 -12 12 -18 21 -14 10 4 12 0 8 -11 -3 -9 -10 -14 -14 -11 -5 3 -10 2
-13 -2 -2 -5 -2 -2 0 5 2 8 -6 16 -16 19 -11 3 -22 14 -24 25 -5 16 -12 19
-32 16 -14 -3 -42 1 -63 8 -20 7 -31 13 -23 14 8 0 11 3 8 7 -4 3 -2 12 4 19
8 10 1 11 -31 7 -26 -4 -40 -2 -40 6 0 6 -5 11 -11 11 -8 0 -8 -4 0 -13 12
-15 -3 -37 -27 -37 -7 0 -10 -4 -7 -10 10 -16 -5 -12 -36 11 -16 11 -29 16
-29 11 0 -4 -17 -14 -37 -20 -24 -7 -28 -10 -12 -8 15 1 35 -3 45 -11 17 -12
17 -13 -2 -14 -11 -1 -7 -4 11 -8 18 -5 34 -3 40 3 9 10 18 12 43 7 4 -1 -4
-7 -18 -14 -14 -7 -24 -21 -24 -30 1 -9 -2 -17 -7 -17 -5 0 -9 4 -9 8 0 4 -10
8 -21 9 -19 2 -19 0 -5 -10 8 -7 12 -17 8 -24 -5 -8 -24 -6 -69 9 -37 12 -60
25 -56 31 4 6 0 8 -10 4 -9 -3 -30 -1 -47 4 -23 8 -34 8 -45 -1 -12 -10 -15
-9 -15 4 0 17 -35 23 -44 7 -7 -10 63 -46 83 -42 7 1 10 -2 6 -8 -3 -6 2 -14
12 -18 10 -3 32 -16 49 -29 17 -12 47 -31 66 -42 85 -48 84 -48 123 -81 33
-27 6 -20 -71 20 -43 22 -83 44 -89 48 -15 12 -97 33 -125 33 -14 0 -28 4 -31
9 -3 6 -31 13 -62 16 -53 5 -57 4 -57 -15 0 -15 9 -22 30 -27 17 -4 28 -10 25
-15 -3 -4 7 -11 23 -15 35 -8 74 -34 68 -44 -3 -4 6 -6 19 -3 25 4 34 -11 14
-23 -6 -4 -8 -14 -4 -22 4 -12 3 -13 -8 -5 -8 7 -17 9 -20 6 -4 -4 -18 1 -32
10 -14 9 -25 14 -25 11 0 -4 -7 0 -15 8 -8 9 -24 13 -35 10 -24 -6 -21 -26 4
-31 9 -2 28 -14 43 -28 14 -13 32 -24 38 -24 7 0 15 -7 19 -15 3 -8 12 -12 20
-9 8 3 17 1 21 -5 3 -6 0 -11 -7 -11 -9 0 -9 -3 2 -10 8 -5 10 -10 4 -10 -5 0
-15 5 -22 12 -7 7 -12 8 -12 3 0 -4 -9 0 -20 10 -13 12 -35 18 -67 18 -26 0
-39 2 -28 5 24 6 -106 52 -147 52 -33 0 -48 -20 -16 -21 42 -1 60 -7 73 -26
16 -21 10 -34 -10 -26 -8 3 -15 0 -15 -6 0 -6 6 -11 13 -11 7 0 23 -9 35 -20
12 -11 30 -20 41 -20 11 0 23 -4 26 -10 3 -5 13 -10 22 -10 19 0 220 -97 228
-110 3 -5 -28 6 -70 25 -42 19 -87 35 -101 35 -14 0 -23 4 -20 9 3 5 -4 9 -17
9 -12 0 -44 5 -70 11 -93 21 -213 24 -246 6 -31 -16 -43 -32 -17 -22 8 3 20
-1 26 -9 7 -8 30 -14 51 -14 22 0 39 -4 39 -9 0 -5 6 -11 13 -14 6 -2 4 -3 -7
-1 -10 1 -29 -2 -43 -7 -16 -6 -22 -6 -18 1 8 12 8 12 -33 1 -20 -6 -32 -6
-32 0 0 5 -5 9 -11 9 -8 0 -7 -5 2 -16 7 -8 21 -13 31 -11 10 3 18 2 18 -3 0
-4 14 -10 31 -14 17 -3 28 -10 25 -15 -5 -8 11 -17 44 -26 3 -1 13 -5 23 -10
10 -4 21 -5 24 -2 3 4 14 -5 25 -18 11 -14 25 -25 33 -25 7 0 18 -6 24 -14 21
-25 -7 -29 -40 -5 -24 17 -33 19 -39 9 -6 -10 -16 -10 -48 3 -22 9 -42 13 -46
10 -3 -4 -6 1 -6 11 0 13 -5 16 -21 11 -15 -5 -19 -4 -15 4 4 6 0 11 -8 11 -9
0 -16 4 -16 9 0 4 -16 7 -35 5 -19 -1 -37 2 -41 7 -9 16 -81 10 -95 -8 -11
-13 -12 -17 -1 -21 7 -2 21 -13 31 -23 11 -12 25 -17 34 -13 12 4 17 1 17 -11
0 -11 6 -15 19 -10 11 3 21 0 24 -9 4 -9 -3 -16 -16 -20 -31 -8 -39 -7 -32 4
3 6 1 10 -4 10 -6 0 -11 -9 -11 -21 0 -11 4 -18 9 -14 5 3 12 1 16 -5 3 -5 18
-10 33 -10 23 -1 25 -2 9 -11 -15 -9 -15 -12 -3 -25 8 -8 17 -14 20 -14 3 0
20 -15 38 -33 29 -28 49 -42 123 -81 11 -6 31 -21 45 -33 14 -11 41 -30 60
-41 110 -61 151 -85 156 -93 3 -5 3 -9 1 -9 -10 0 -71 29 -62 30 13 0 -47 35
-107 62 -27 11 -48 24 -48 28 0 10 -124 70 -146 70 -38 0 -154 55 -154 73 0 4
-8 7 -17 7 -10 0 -37 9 -60 20 -37 16 -43 17 -43 3 0 -10 6 -13 17 -9 16 5 16
4 0 -8 -21 -16 -23 -12 42 -64 l25 -19 -37 -12 c-20 -7 -42 -9 -48 -5 -8 5 -9
3 -4 -6 6 -10 4 -12 -8 -7 -8 3 -18 0 -20 -8 -7 -17 3 -27 17 -16 6 5 31 13
57 18 42 9 46 8 56 -14 9 -19 8 -25 -8 -33 -13 -7 -19 -7 -19 0 0 15 -42 12
-66 -5 -12 -8 -24 -11 -28 -7 -4 3 -4 -1 -1 -10 4 -9 16 -19 28 -23 22 -6 22
-6 2 -15 -17 -7 -15 -9 13 -9 19 -1 31 -5 27 -11 -4 -6 1 -7 12 -3 16 6 16 4
-2 -18 l-20 -24 22 19 c17 14 29 16 50 10 15 -4 38 -8 51 -8 27 0 29 -22 3
-29 -12 -3 -22 1 -26 11 -5 13 -7 13 -18 -1 -6 -9 -28 -19 -47 -23 -24 -4 -31
-3 -21 4 10 7 3 12 -28 17 -35 6 -45 4 -56 -12 -9 -12 -10 -21 -3 -28 7 -7 15
-3 25 12 17 25 38 31 30 9 -7 -17 18 -54 29 -44 4 4 14 2 22 -5 8 -6 35 -13
60 -14 25 -1 48 -7 52 -12 3 -6 51 -17 105 -26 145 -22 215 -38 215 -48 0 -5
-14 -6 -32 -2 -18 3 -60 9 -93 11 -33 3 -73 10 -90 15 -16 6 -111 12 -209 14
-124 3 -182 8 -187 17 -5 8 -14 7 -34 -6 l-26 -17 33 -33 c18 -18 36 -31 39
-30 3 2 13 -6 23 -18 13 -14 20 -17 25 -9 5 7 20 9 41 4 28 -5 31 -8 15 -13
-11 -4 16 -8 60 -8 44 0 106 0 139 -1 57 -2 58 -2 41 -21 -22 -24 -29 -26 -21
-5 3 8 1 15 -4 15 -6 0 -10 -5 -10 -11 0 -8 -5 -8 -15 1 -12 10 -15 10 -15 -4
0 -9 8 -16 21 -16 11 0 17 -4 14 -10 -3 -5 -1 -10 5 -10 6 0 8 -5 4 -11 -5 -8
-10 -6 -16 5 -10 17 -38 22 -38 6 0 -5 5 -10 12 -10 6 0 19 -7 28 -15 15 -14
18 -14 30 0 10 12 10 18 0 30 -21 26 18 32 43 6 12 -11 16 -21 9 -21 -6 0 -12
-5 -12 -11 0 -6 7 -9 15 -5 8 3 15 1 15 -5 0 -6 5 -7 10 -4 6 4 9 1 8 -7 -2
-7 3 -12 10 -10 6 1 12 -2 12 -8 0 -13 -13 -13 -27 1 -14 14 -75 21 -67 8 3
-5 -32 -10 -78 -10 -46 -1 -69 -4 -53 -6 17 -3 35 -8 40 -12 6 -4 30 -14 53
-21 35 -11 48 -11 64 -1 11 7 23 10 26 7 3 -3 0 -6 -6 -6 -7 0 -12 -5 -12 -10
0 -7 6 -7 19 0 25 13 68 13 76 0 4 -6 -1 -7 -11 -3 -12 4 -15 2 -12 -8 3 -8
11 -14 19 -14 8 -1 23 -6 34 -13 18 -11 15 -12 -22 -10 -23 2 -39 -1 -36 -5 3
-5 -4 -6 -15 -3 -11 4 -29 9 -39 11 -10 2 -32 8 -50 14 -17 5 -33 7 -36 5 -2
-3 -17 1 -33 7 -16 7 -33 13 -39 14 -10 1 -36 11 -70 26 -26 11 -187 41 -192
35 -3 -2 -19 2 -38 9 -18 8 -35 11 -39 8 -3 -4 -6 2 -6 11 0 10 -5 16 -12 14
-6 -2 -19 3 -28 11 -10 9 -27 24 -38 33 -22 18 -22 18 -22 -28 0 -41 19 -79
40 -79 11 0 60 -43 60 -53 0 -12 25 -23 43 -18 6 1 9 1 4 -1 -4 -3 -7 -9 -7
-15 0 -7 14 -8 35 -5 35 6 50 -8 18 -16 -10 -3 7 -5 37 -6 57 -2 91 -8 220
-37 41 -9 85 -17 98 -18 12 -1 22 -4 22 -8 0 -5 9 -8 19 -8 26 0 143 -30 156
-40 6 -4 28 -13 50 -20 44 -14 68 -30 44 -30 -9 0 -19 3 -23 7 -4 5 -11 8 -14
9 -4 0 -20 6 -37 13 -16 7 -43 14 -60 15 -16 1 -39 7 -50 12 -11 6 -38 12 -60
13 -22 2 -48 7 -58 13 -13 6 -23 6 -33 -3 -8 -6 -17 -9 -21 -5 -3 3 -1 6 5 6
7 0 12 4 12 9 0 4 -23 4 -52 0 -34 -6 -56 -5 -65 2 -7 6 -20 9 -28 5 -8 -3
-27 0 -40 6 -19 9 -28 9 -37 0 -7 -7 -19 -12 -28 -12 -12 0 -12 2 -2 9 10 6 7
10 -12 13 -14 3 -23 1 -20 -3 3 -5 -3 -9 -13 -9 -10 0 -29 -3 -42 -7 -16 -4
-22 -2 -18 4 9 14 -32 5 -52 -11 -11 -8 -13 -8 -7 2 4 6 3 12 -3 12 -5 0 -13
-5 -16 -10 -4 -6 -11 -8 -16 -4 -5 3 -7 10 -4 15 4 5 -5 4 -19 -3 -14 -6 -26
-19 -26 -28 0 -16 13 -17 113 -16 61 0 135 -2 162 -6 116 -18 127 -20 115 -28
-8 -5 -4 -9 12 -13 12 -4 25 -6 27 -6 2 0 8 -5 12 -13 7 -11 9 -11 9 0 0 10 4
9 16 -3 13 -12 14 -19 4 -30 -15 -18 -40 -20 -40 -3 0 6 -6 3 -14 -7 -14 -19
-10 -55 6 -55 5 0 18 5 28 10 15 8 21 6 30 -10 9 -17 14 -18 31 -7 17 10 22 9
35 -7 8 -11 14 -16 14 -12 0 5 6 3 13 -3 8 -6 17 -7 22 -3 4 4 5 0 3 -8 -3 -8
-11 -14 -17 -12 -7 1 -10 -1 -7 -6 3 -5 -30 -2 -72 5 -119 21 -135 23 -324 29
-107 4 -178 3 -178 -3 0 -5 69 -14 153 -21 238 -18 482 -78 674 -167 l76 -35
2058 0 c1154 0 2059 4 2059 9 0 12 -52 21 -121 21 -56 0 -81 12 -63 30 5 5 52
6 104 1 65 -5 97 -4 102 3 9 14 -35 23 -127 28 -54 2 -70 6 -70 18 0 13 17 14
108 12 92 -3 107 -1 107 12 0 12 -11 16 -47 16 -90 0 -153 12 -153 28 0 13 16
14 110 8 92 -6 110 -5 110 7 0 12 -23 16 -100 22 -93 7 -115 14 -90 30 20 12
211 -7 217 -21 4 -12 -31 -153 -52 -206 -5 -13 -2 -18 9 -18 20 0 27 18 57
138 12 51 26 92 31 92 11 0 3 -50 -23 -148 -23 -86 -22 -82 -5 -82 14 0 40 71
52 142 14 85 10 81 64 75 54 -6 70 -13 70 -29 0 -7 -19 -9 -55 -5 -42 4 -55 2
-55 -8 0 -9 21 -16 65 -20 58 -7 97 -26 82 -41 -3 -3 -38 -2 -77 3 -41 6 -73
6 -76 1 -10 -15 0 -18 79 -27 83 -9 97 -15 97 -37 0 -12 -8 -15 -37 -10 -120
18 -153 18 -153 4 0 -15 74 -28 161 -28 21 0 41 -4 44 -10 4 -7 242 -10 681
-10 l675 0 67 53 c123 99 245 171 367 217 14 5 25 16 25 25 0 19 -34 20 -50 0
-9 -11 -17 -12 -31 -4 -13 6 -19 6 -19 0 0 -9 -70 -51 -84 -51 -2 0 -7 8 -9
18 -3 11 -5 8 -6 -9 -1 -16 -8 -29 -18 -33 -10 -3 -25 -10 -33 -16 -46 -31
-119 -68 -124 -63 -11 11 -6 23 9 23 9 0 18 6 21 14 3 8 13 12 23 9 19 -5 36
21 25 38 -3 5 8 9 25 9 41 0 61 9 55 25 -5 13 32 32 43 21 3 -3 13 -1 23 4 12
6 16 17 13 34 -3 14 -8 25 -12 24 -21 -2 -41 4 -41 13 0 6 -7 17 -15 25 -8 9
-15 12 -15 7 0 -5 5 -14 11 -20 8 -8 5 -11 -12 -10 -18 2 -24 8 -24 25 0 21 4
23 43 19 23 -2 42 1 42 6 0 5 -9 7 -20 4 -11 -3 -20 -1 -20 5 0 5 15 8 35 5
33 -5 49 7 23 16 -11 3 31 21 120 52 19 7 27 36 12 45 -18 11 -49 0 -60 -21
-9 -15 -15 -17 -37 -8 -18 6 -35 7 -48 1 -27 -13 -108 -36 -117 -34 -5 1 -8
-2 -8 -7 0 -5 -17 -15 -37 -21 -57 -19 -143 -68 -185 -106 -21 -19 -40 -34
-43 -34 -13 0 10 28 41 50 19 14 43 32 54 41 10 8 35 24 54 34 20 11 36 23 36
27 0 5 7 8 16 8 9 0 28 6 42 14 38 19 71 33 117 47 22 7 47 19 55 27 13 13 13
14 -2 9 -10 -3 -20 -1 -24 5 -4 7 -3 8 4 4 7 -4 12 -1 12 9 0 15 1 15 16 1 17
-17 54 -22 54 -7 0 6 -5 13 -11 17 -8 4 -7 9 2 15 10 6 7 9 -10 9 -18 0 -22
-4 -16 -17 4 -13 0 -11 -16 6 l-22 24 -14 -27 c-7 -14 -18 -26 -24 -26 -6 0
-7 4 -4 10 4 7 -3 7 -20 0 -34 -13 -35 -13 -28 7 5 13 2 15 -14 11 -13 -4 -27
1 -37 13 -15 18 -14 19 3 19 11 0 21 -4 23 -9 2 -4 14 -12 27 -16 17 -5 22 -4
18 6 -2 8 -10 13 -16 11 -6 -1 -11 2 -11 8 0 5 19 10 43 10 31 0 38 3 27 10
-13 8 -12 10 3 10 9 0 17 -4 17 -10 0 -13 37 -13 46 1 3 6 1 16 -4 21 -8 8 -8
17 -1 31 8 13 8 17 1 13 -6 -4 -15 1 -21 11 -8 16 -10 15 -16 -9 -8 -30 1 -52
17 -42 7 4 8 2 4 -5 -8 -13 -28 -2 -53 29 -11 13 -12 12 -13 -7 0 -13 -5 -23
-10 -23 -6 0 -9 6 -8 13 2 6 -3 11 -10 9 -7 -1 -15 5 -18 13 -8 20 -31 19 -37
-2 -4 -17 -5 -17 -6 0 0 10 8 28 20 40 12 13 19 16 17 7 -2 -8 3 -14 10 -15 7
0 17 -6 21 -14 7 -10 10 -10 16 -1 4 7 1 16 -6 21 -11 7 -10 9 4 9 10 0 15 5
12 10 -3 6 -1 10 4 10 6 0 11 -4 11 -10 0 -6 9 -6 23 -1 12 5 41 15 65 22 23
7 42 16 42 22 0 5 -7 6 -16 3 -9 -4 -13 -2 -8 5 3 6 19 9 35 5 24 -5 29 -2 29
14 0 11 -5 20 -11 20 -5 0 -7 5 -3 12 4 6 -9 -1 -29 -16 -20 -16 -37 -33 -37
-38 0 -5 -5 -6 -10 -3 -8 5 -7 11 1 21 10 12 9 13 -5 8 -9 -3 -16 -10 -16 -15
0 -5 -19 -9 -41 -9 -36 0 -40 -2 -29 -15 9 -11 9 -15 1 -15 -6 0 -16 10 -21
23 -8 20 -9 20 -10 2 0 -15 -2 -17 -9 -6 -6 9 -21 12 -44 9 -31 -3 -36 -1 -40
19 -5 26 9 29 36 8 11 -7 26 -11 34 -8 11 5 8 9 -13 18 l-29 13 41 -2 c36 -1
40 1 36 17 -4 17 -2 18 17 8 28 -15 51 -3 27 15 -12 8 -27 9 -50 3 -19 -5 -45
-5 -64 0 -18 5 -32 6 -32 1 0 -4 -10 -6 -22 -2 -14 3 -19 2 -14 -6 4 -7 17
-13 29 -13 16 -1 17 -3 5 -6 -9 -2 -27 1 -38 7 -22 12 -22 12 -3 30 13 12 31
17 54 15 19 -2 28 -1 22 2 -18 7 -16 26 1 20 7 -3 23 1 34 9 13 9 23 11 27 4
3 -5 11 -10 17 -10 7 0 6 6 -2 15 -10 12 -10 15 0 15 8 0 11 2 8 5 -3 3 -17 1
-31 -4 -15 -6 -29 -6 -32 -2 -2 5 13 16 35 25 27 10 40 22 39 33 -1 17 -2 17
-6 1 -5 -19 -43 -25 -43 -7 0 5 4 8 9 5 5 -3 12 2 15 11 4 9 1 20 -6 25 -10 5
-8 8 5 8 35 0 117 32 110 43 -3 5 -1 7 4 4 6 -4 24 0 39 8 16 8 25 15 19 15
-5 0 -2 5 8 11 13 8 17 23 17 65 0 54 0 54 -27 48 -35 -8 -125 -45 -137 -56
-6 -4 -18 -8 -28 -8 -10 0 -18 -4 -18 -10 0 -5 -7 -10 -15 -10 -9 0 -33 -11
-55 -25 -22 -14 -45 -25 -52 -25 -6 0 -20 -8 -30 -17 -13 -11 -22 -13 -29 -6
-11 11 20 29 179 109 50 26 92 51 92 55 0 5 11 9 23 9 13 0 40 12 59 27 35 27
35 28 37 115 l2 87 -43 -3 c-24 -2 -69 -15 -100 -30 -31 -14 -64 -26 -72 -26
-9 0 -24 -4 -34 -9 -9 -5 -32 -15 -49 -21 -18 -7 -33 -16 -33 -21 0 -5 -5 -9
-11 -9 -6 0 -17 -7 -25 -15 -20 -19 -41 -20 -25 -1 6 7 57 37 114 66 56 28
106 56 111 61 6 5 18 9 28 9 10 0 21 7 24 15 4 8 12 15 20 15 8 0 14 4 14 9 0
5 14 14 32 22 27 11 28 14 12 19 -10 4 -20 3 -22 -1 -5 -11 -22 -12 -22 -1 0
12 46 32 62 28 7 -1 10 -1 5 1 -4 3 -5 9 -1 14 3 5 -6 9 -20 9 -14 0 -28 5
-31 10 -4 6 -11 7 -17 4 -7 -5 -2 -11 12 -16 12 -5 20 -11 17 -14 -3 -3 -22 0
-42 7 -31 11 -37 11 -45 -1 -7 -11 -10 -11 -10 -2 0 8 -9 10 -27 6 -22 -4 -25
-3 -13 5 8 6 23 11 33 11 9 0 17 5 17 11 0 6 16 10 38 9 62 -3 69 -1 42 15
-14 8 -31 14 -38 15 -28 0 -58 50 -30 50 9 0 9 3 1 11 -9 9 -16 8 -28 -5 -18
-17 -70 -23 -60 -6 3 6 17 10 31 10 13 0 24 5 24 11 0 6 -7 9 -15 5 -8 -3 -15
-1 -15 4 0 10 21 14 49 11 7 -2 10 2 6 8 -3 6 -2 11 4 11 5 0 22 11 37 25 15
14 35 25 45 25 30 0 49 11 49 30 0 27 -86 45 -117 24 -13 -8 -23 -12 -23 -10
0 3 -19 -2 -42 -10 -24 -9 -50 -17 -58 -19 -8 -2 -17 -4 -20 -5 -3 -1 -9 -2
-13 -1 -4 1 -14 -4 -22 -11 -36 -32 -45 -38 -64 -38 -30 0 -51 -11 -51 -27 0
-8 -4 -12 -10 -8 -14 9 -2 31 26 43 13 7 24 20 24 31 0 23 16 36 25 21 4 -6
20 5 38 25 17 19 34 35 38 35 4 0 29 10 56 22 26 12 52 20 56 19 5 -1 6 3 2 8
-3 6 -13 7 -22 4 -11 -4 -14 -3 -9 5 5 8 -2 12 -23 12 -16 0 -33 -4 -36 -10
-3 -5 -37 -10 -76 -10 -38 0 -69 -4 -69 -10 0 -5 -6 -7 -14 -4 -8 3 -17 1 -21
-5 -3 -6 -14 -11 -24 -11 -10 0 -32 -7 -47 -15 -16 -8 -36 -15 -45 -15 -8 0
-19 -3 -25 -7 -5 -5 -1 0 9 9 11 10 28 18 38 18 10 0 19 4 19 9 0 5 12 12 28
16 15 3 34 13 42 20 9 8 38 24 65 36 28 12 45 24 38 26 -7 2 -20 0 -30 -6 -12
-6 -25 -6 -34 0 -12 7 -11 9 2 9 23 0 70 39 48 40 -8 0 -21 -6 -27 -12 -10
-10 -15 -10 -21 1 -7 10 -13 11 -31 1 -12 -7 -20 -7 -16 -2 4 6 -9 8 -34 5
-23 -3 -40 -2 -40 4 0 6 12 9 27 7 18 -2 35 5 51 21 28 29 22 44 -14 37 -23
-4 -26 -2 -21 12 4 10 7 22 7 27 0 6 9 7 20 4 11 -3 20 -4 20 -1 0 15 -77 25
-107 14 -23 -8 -38 -9 -55 -1 -20 10 -18 11 17 7 38 -4 38 -4 12 7 l-27 11 25
20 c19 15 33 18 57 12 29 -6 31 -5 19 10 -15 18 -1 22 16 5 7 -7 12 -6 16 5 7
19 -24 26 -122 28 -41 1 -68 4 -60 7 8 3 14 12 15 19 3 31 4 33 23 23 14 -8
22 -7 31 4 15 18 11 23 -16 28 -54 8 -59 41 -8 57 46 15 116 6 159 -20 39 -24
69 -27 113 -9 25 11 37 11 51 2 20 -12 81 -6 148 15 27 9 34 7 52 -12 13 -14
21 -36 21 -57 0 -19 9 -45 20 -59 l20 -25 0 176 0 177 -32 5 c-18 3 -43 8 -55
12 -19 6 -23 4 -23 -14 0 -24 -25 -28 -34 -5 -11 28 5 66 24 61 19 -5 30 17
30 60 0 28 47 83 71 83 18 0 19 12 19 350 0 193 -2 350 -4 350 -2 0 -28 -11
-58 -25 -65 -30 -88 -31 -122 -4 -19 15 -26 30 -26 53 0 27 10 42 53 82 45 41
60 49 92 49 35 0 39 -3 51 -35 11 -30 13 6 13 240 1 271 1 275 -17 245 -22
-36 -37 -131 -22 -140 16 -10 12 -45 -11 -93 -19 -39 -25 -43 -48 -39 -25 5
-28 2 -39 -38 -7 -27 -22 -51 -38 -62 -14 -10 -41 -30 -59 -45 -41 -35 -64
-35 -112 -2 -21 14 -50 28 -64 31 -52 10 -84 111 -44 137 12 8 27 28 34 44 7
16 23 34 36 40 13 6 26 20 30 31 3 12 10 21 15 21 5 0 11 9 15 19 5 18 40 30
105 37 14 1 27 3 30 3 3 1 6 30 6 66 2 68 13 95 62 148 32 33 40 33 86 2 l36
-24 0 1028 0 1029 -87 6 c-49 3 -105 10 -126 15 -25 5 -59 4 -100 -5 -34 -7
-66 -9 -72 -6 -5 4 -14 7 -20 7 -5 0 -20 19 -31 42 -12 24 -36 59 -54 79 -20
23 -28 40 -22 46 11 11 -32 61 -61 71 -34 13 -67 -4 -87 -43 -20 -39 -39 -51
-91 -54 -23 -2 -31 4 -41 28 -6 16 -11 41 -10 55 3 31 -23 71 -47 71 -20 0
-51 -30 -51 -48 0 -7 -4 -12 -10 -12 -5 0 -10 -6 -10 -12 -1 -17 -30 -50 -60
-67 -59 -34 -115 -34 -125 0 -4 11 -10 17 -15 14 -8 -5 -5 43 6 98 5 22 0 33
-21 53 -33 30 -37 30 -110 -6 -33 -16 -71 -30 -85 -30 -38 0 -87 35 -100 73
l-13 33 -31 -28 c-26 -25 -80 -58 -93 -58 -10 0 -63 128 -63 152 0 22 -5 28
-22 28 -13 1 -38 1 -56 2 -23 1 -42 -7 -62 -27 -17 -16 -28 -31 -25 -33 3 -3
-1 -12 -9 -21 -17 -21 -27 -71 -13 -71 7 0 7 -4 0 -11 -7 -7 -8 -21 -4 -33 10
-32 5 -110 -10 -137 -7 -13 -13 -33 -13 -44 -1 -12 -7 -19 -15 -17 -15 3 -61
-36 -61 -52 0 -6 -12 -12 -26 -13 -21 -1 -29 5 -37 28 -6 16 -15 29 -19 29 -4
0 -5 7 -2 15 4 9 -1 18 -12 22 -11 4 -24 13 -30 21 -6 8 -28 17 -49 19 -44 4
-75 19 -75 35 0 11 -60 68 -73 68 -5 0 -5 5 -1 12 5 7 3 8 -5 3 -9 -5 -11 -22
-8 -51 4 -26 2 -44 -5 -46 -13 -5 3 -40 18 -39 5 0 9 -10 9 -23 0 -12 6 -30
13 -39 9 -11 10 -17 2 -22 -8 -5 -8 -11 -1 -19 15 -18 3 -26 -36 -26 -19 0
-44 -5 -55 -11 -17 -9 -24 -8 -34 5 -9 13 -13 14 -17 3 -3 -8 -30 -31 -61 -51
l-56 -37 -46 21 c-55 24 -134 93 -151 132 -14 33 -31 35 -61 8 -24 -22 -28
-23 -56 -8 -13 7 -21 6 -27 -3 -6 -11 -12 -10 -27 4 -10 9 -21 14 -25 11 -3
-4 -22 10 -41 30 -20 20 -42 36 -50 36 -8 0 -19 14 -25 30 -5 17 -18 33 -28
37 -33 12 -73 47 -93 81 -15 25 -26 33 -43 30 -21 -3 -22 -8 -25 -92 -2 -52
-8 -96 -16 -107 -35 -51 -158 -121 -234 -135 -20 -3 -47 -13 -60 -21 -33 -21
-43 -8 -39 51 2 35 12 65 30 91 15 22 27 45 27 51 0 7 11 25 25 40 13 16 35
45 47 64 32 47 131 99 159 82 16 -10 19 -9 19 3 0 11 5 12 25 5 28 -11 36 -1
54 65 6 23 20 51 31 63 l20 21 -24 16 c-20 13 -28 14 -44 4 -17 -10 -25 -10
-46 4 -30 20 -35 61 -9 76 10 5 18 23 19 43 4 69 12 116 23 136 17 31 15 32
-49 32 l-60 0 -22 -42 c-21 -41 -24 -48 -27 -66 -2 -14 -66 -82 -77 -82 -6 0
-19 -9 -28 -19 -14 -16 -19 -44 -23 -128 -7 -129 -29 -179 -100 -222 -40 -24
-73 -76 -73 -116 0 -7 -14 -36 -31 -64 -34 -54 -70 -71 -127 -56 -15 3 -41 9
-59 12 -41 7 -75 43 -82 90 -6 35 -9 38 -39 39 -18 1 -35 -3 -38 -7 -9 -15
-61 -10 -75 7 -8 9 -14 42 -15 73 -3 109 -17 216 -30 236 -19 27 -17 64 6 110
25 49 22 141 -6 198 -18 38 -18 38 -73 35 l-55 -3 4 -65 c2 -36 4 -118 4 -182
1 -110 0 -118 -23 -142 -14 -14 -30 -26 -37 -26 -6 0 -18 -10 -26 -22 -13 -20
-17 -21 -32 -9 -9 7 -16 19 -16 25 0 7 -10 23 -22 36 l-22 24 -7 -25 c-3 -13
-2 -34 3 -47 9 -27 0 -152 -13 -168 -5 -6 -10 -38 -11 -70 -2 -99 -1 -104 27
-104 14 0 25 -6 25 -12 0 -7 7 -26 15 -42 9 -16 13 -31 10 -34 -9 -9 -58 22
-63 41 -5 20 -15 21 -42 7 -16 -9 -22 -5 -35 20 -9 17 -13 39 -10 49 8 25 -11
71 -30 71 -8 0 -15 7 -15 16 0 9 -9 29 -20 44 -20 28 -21 28 -51 13 -17 -8
-34 -25 -39 -38 -5 -12 -18 -25 -31 -28 -17 -5 -20 -10 -13 -24 4 -10 7 -40 6
-67 -3 -60 27 -112 87 -152 22 -14 54 -50 72 -80 18 -30 36 -54 40 -54 4 0 24
-16 45 -35 27 -26 37 -43 36 -64 0 -17 6 -35 14 -42 18 -14 19 -43 2 -33 -10
6 -10 4 0 -8 10 -12 10 -18 1 -23 -6 -4 -15 -2 -19 4 -4 7 -7 -1 -8 -19 0 -24
3 -30 14 -26 14 5 31 -35 21 -51 -3 -5 -2 -55 3 -113 5 -58 5 -107 0 -110 -4
-3 -6 -20 -4 -38 2 -18 0 -31 -5 -28 -5 4 -7 -12 -5 -35 2 -23 0 -48 -5 -57
-5 -9 -3 -28 6 -50 10 -25 13 -52 8 -94 -6 -53 -11 -61 -53 -99 -42 -36 -51
-40 -85 -36 -45 6 -52 -3 -61 -92 l-7 -64 28 6 c15 3 52 -2 81 -11 46 -15 54
-21 63 -53 9 -29 8 -42 -6 -68 -9 -18 -15 -34 -13 -36 2 -1 26 -5 55 -9 44 -6
52 -4 57 11 3 10 16 59 30 108 79 293 116 379 243 561 142 202 153 213 444
401 42 27 77 29 95 6 11 -15 15 -16 23 -4 9 13 35 6 27 -7 -5 -8 37 -11 134
-11 36 0 66 3 68 8 4 13 124 3 133 -11 5 -7 9 -9 9 -5 0 4 10 3 21 -4 17 -9
23 -8 30 2 7 11 9 10 9 -5 0 -14 6 -17 25 -14 14 3 23 1 22 -6 -2 -13 27 -15
63 -5 18 4 33 1 49 -12 13 -11 34 -19 47 -19 13 0 24 -4 24 -9 0 -9 92 -34
130 -36 8 -1 14 -6 13 -13 -2 -7 6 -12 18 -12 13 0 18 4 13 13 -4 6 1 5 12 -4
27 -22 52 -30 60 -18 4 7 10 6 18 0 7 -6 16 -8 19 -4 4 3 7 -1 7 -11 0 -13 5
-16 19 -11 20 6 25 4 99 -34 34 -18 46 -20 58 -10 11 9 14 9 14 0 0 -7 5 -9
10 -6 7 4 8 -3 4 -22 -4 -15 -3 -25 1 -21 4 4 18 -6 31 -21 14 -17 44 -35 70
-42 54 -16 74 -36 77 -77 1 -17 4 -30 7 -30 21 1 29 -4 24 -16 -3 -8 -12 -12
-20 -9 -8 3 -20 0 -28 -6 -7 -6 -15 -8 -19 -5 -3 3 -3 -3 0 -15 6 -24 -5 -28
-21 -7 -6 8 -28 17 -48 20 -30 6 -38 4 -38 -9 0 -8 5 -15 10 -15 6 0 15 -12
21 -27 6 -17 13 -23 17 -16 5 8 13 9 22 3 13 -8 12 -10 -3 -10 -10 0 -16 -4
-13 -9 3 -4 -4 -17 -15 -27 -12 -11 -25 -29 -30 -42 -7 -17 -14 -22 -29 -17
-11 3 -20 3 -20 -1 0 -11 34 -33 51 -34 9 0 22 -7 29 -15 10 -12 10 -15 -3
-15 -9 0 -19 5 -23 11 -3 6 -15 9 -25 6 -11 -3 -17 -1 -14 3 3 5 -8 11 -24 15
-20 4 -31 13 -33 27 -2 12 -9 23 -17 26 -8 3 -11 0 -7 -7 5 -7 1 -9 -9 -4 -12
4 -13 8 -5 13 8 5 1 13 -20 23 -30 15 -31 15 -19 0 12 -15 12 -16 -5 -9 -20 7
-20 7 -1 -16 11 -13 13 -17 5 -10 -20 18 -32 15 -21 -5 9 -18 11 -25 11 -43 0
-5 5 -10 11 -10 6 0 24 -11 41 -25 16 -14 24 -25 16 -25 -7 0 -22 -3 -34 -6
-13 -3 -28 1 -38 11 -9 9 -16 12 -16 7 0 -18 40 -44 60 -39 12 3 29 -3 43 -14
12 -10 17 -18 10 -19 -6 0 -15 5 -18 10 -9 14 -35 12 -32 -2 1 -7 11 -21 21
-30 31 -29 9 -21 -53 20 -46 30 -57 42 -50 54 6 11 1 22 -16 38 -19 18 -22 26
-14 37 6 7 15 10 20 7 5 -3 9 -1 9 5 0 6 8 7 18 4 16 -7 16 -6 0 11 -10 9 -18
22 -18 27 0 5 -6 9 -13 9 -14 0 -18 42 -5 50 4 3 -6 14 -24 24 -17 11 -28 14
-24 7 5 -8 -6 -6 -31 4 -21 9 -44 19 -50 22 -7 3 -13 0 -13 -6 0 -6 11 -16 25
-21 14 -5 25 -13 25 -17 0 -14 -97 -8 -114 6 -9 8 -16 9 -16 3 0 -6 6 -12 13
-15 6 -2 9 -8 5 -12 -4 -4 -12 -4 -19 1 -17 10 -69 13 -69 4 0 -5 -8 -11 -17
-13 -16 -4 -16 -5 -2 -6 9 0 19 -7 22 -15 7 -18 -21 -25 -108 -27 l-68 -2 59
-28 c69 -33 293 -109 320 -109 17 1 16 3 -5 20 -37 32 -1 24 49 -10 25 -17 64
-42 87 -58 42 -27 68 -60 39 -49 -8 3 -16 1 -18 -5 -3 -8 -10 -7 -26 1 -12 6
-22 8 -22 3 0 -6 10 -12 22 -15 17 -5 19 -9 9 -21 -8 -10 -9 -16 -1 -21 5 -3
10 -12 9 -18 0 -8 -2 -8 -6 1 -4 10 -8 10 -21 0 -12 -10 -14 -10 -8 0 4 6 2
12 -3 12 -6 0 -11 -5 -11 -11 0 -8 -5 -8 -15 1 -13 11 -14 6 -9 -31 3 -24 7
-49 9 -56 2 -7 -2 -10 -10 -6 -8 3 -12 9 -9 14 3 5 -2 6 -10 3 -9 -3 -16 -1
-16 5 0 6 -5 11 -12 11 -6 0 -19 7 -28 15 -10 9 -31 17 -48 19 -16 3 -40 9
-51 16 -13 7 -21 7 -21 1 0 -7 -9 -7 -26 -1 -15 6 -31 7 -38 2 -17 -14 -78
-24 -71 -12 6 10 -44 14 -138 11 -30 -1 -46 3 -42 9 10 17 -7 11 -22 -7 -14
-17 -14 -17 -9 0 7 21 6 21 -30 2 -22 -11 -30 -12 -36 -2 -6 9 -8 9 -8 -1 0
-7 -5 -10 -10 -7 -6 3 -16 3 -22 -2 -7 -4 -26 -9 -43 -10 -16 -1 -40 -5 -52
-8 -13 -4 -23 -3 -23 2 0 5 -12 8 -27 7 -16 -1 -34 -3 -40 -3 -7 -1 -16 -13
-19 -27 -4 -16 -12 -23 -20 -20 -8 3 -14 1 -14 -4 0 -5 -12 -9 -27 -9 -70 -1
-75 -2 -70 -16 4 -8 -4 -15 -19 -18 -28 -5 -31 1 -6 19 16 13 16 13 0 14 -10
0 -18 7 -18 15 0 8 -8 16 -17 17 -42 4 -59 5 -81 7 -19 1 -22 5 -18 34 3 17 8
41 11 53 6 18 2 21 -27 22 -20 0 -39 9 -49 21 -9 11 -19 17 -23 14 -3 -3 -13
0 -22 8 -9 7 -28 14 -43 15 -50 2 -103 17 -108 30 -9 25 -55 32 -106 15 -27
-9 -46 -19 -43 -22 3 -2 -3 -5 -14 -5 -31 0 -3 24 36 32 19 3 34 10 34 15 0 5
8 9 17 9 33 0 4 12 -39 15 -37 3 -47 -1 -76 -28 -19 -18 -38 -41 -43 -52 -5
-11 -15 -29 -21 -40 -52 -81 -72 -125 -58 -125 6 0 10 4 10 9 0 37 112 108
140 91 8 -5 29 -9 46 -8 36 1 57 -9 48 -24 -4 -7 -9 -6 -14 2 -5 9 -9 9 -14 1
-4 -6 -2 -11 4 -11 6 0 8 -4 5 -10 -3 -5 0 -7 8 -4 21 8 30 -12 13 -28 -11
-12 -11 -17 -1 -32 7 -9 16 -17 19 -17 3 1 6 -2 6 -6 0 -5 -8 -8 -19 -9 -23
-1 -43 -13 -37 -23 3 -4 -12 -8 -32 -9 -20 -2 -42 -8 -49 -14 -7 -6 -13 -7
-13 -3 0 5 -8 1 -18 -8 -11 -10 -27 -14 -42 -10 -14 3 -23 3 -20 0 3 -3 55
-19 115 -37 132 -38 280 -106 315 -145 25 -28 25 -28 -19 4 -43 30 -68 40 -57
22 3 -5 -35 7 -85 27 -49 20 -86 38 -81 40 5 1 41 -11 81 -28 40 -17 75 -29
78 -27 7 8 -136 63 -232 91 -127 36 -234 55 -353 63 -95 6 -105 4 -132 -15
-16 -12 -34 -22 -40 -22 -14 0 -13 -17 2 -24 7 -4 -2 -4 -20 -1 -30 4 -34 2
-48 -30 -25 -60 -19 -89 21 -108 32 -15 35 -21 35 -59 0 -24 8 -52 16 -63 15
-19 16 -18 9 20 -20 102 -3 244 33 271 11 9 50 13 112 14 l95 0 1 -34 c0 -28
-4 -35 -23 -39 -13 -2 -26 0 -29 4 -3 5 -18 9 -34 9 -24 0 -28 4 -26 24 3 23
0 24 -36 23 -33 -1 -42 -7 -54 -30 -8 -15 -12 -32 -9 -37 3 -6 1 -10 -4 -10
-13 0 -14 -142 -3 -205 7 -38 10 -40 41 -38 30 1 32 -1 26 -24 -7 -30 12 -58
30 -43 9 7 16 5 26 -7 12 -15 12 -16 -4 -10 -11 4 -16 3 -12 -3 13 -22 32 -7
62 48 31 55 31 59 17 87 -21 40 -45 66 -55 59 -17 -10 -9 39 9 52 15 13 15 14
0 8 -9 -3 -27 2 -40 11 -13 9 -16 15 -8 13 8 -3 29 1 47 9 18 7 46 13 62 13
24 0 32 -5 37 -25 3 -14 3 -37 -1 -52 -11 -45 11 -15 34 47 25 66 29 135 6
127 -8 -4 -17 -2 -20 3 -8 13 5 12 80 -4 52 -11 57 -13 33 -19 -40 -10 -58
-53 -58 -137 0 -38 3 -70 8 -70 4 0 18 7 30 16 12 8 26 13 31 10 5 -4 11 0 14
6 3 8 9 3 15 -12 12 -31 9 -34 -20 -20 -22 11 -22 10 -4 -4 11 -9 27 -16 35
-16 21 -1 187 -18 229 -24 18 -3 44 -1 57 4 45 17 26 1 -34 -29 -43 -21 -62
-26 -70 -18 -8 8 -11 8 -11 -2 0 -7 -3 -10 -7 -8 -5 3 -32 1 -60 -2 -29 -4
-53 -4 -53 1 0 4 5 8 12 8 6 0 8 3 5 6 -4 4 -13 1 -21 -5 -8 -7 -20 -10 -26
-6 -5 3 -10 1 -10 -4 0 -6 -5 -11 -11 -11 -5 0 -7 5 -4 10 4 6 -8 10 -29 10
-39 0 -42 -7 -25 -55 11 -28 47 -55 75 -55 7 0 14 -5 16 -11 6 -17 108 -19
138 -4 14 8 34 16 45 20 16 5 17 8 5 16 -12 7 -11 10 7 15 13 4 21 10 18 14
-3 5 4 11 15 15 11 3 20 11 20 16 0 6 18 18 40 28 22 10 37 20 34 24 -3 3 3
16 15 28 20 22 21 22 21 3 0 -11 -18 -58 -40 -103 -22 -46 -39 -86 -36 -88 9
-9 46 18 47 35 0 11 2 12 6 4 3 -7 -3 -24 -12 -38 -16 -24 -16 -25 2 -16 35
20 133 133 133 154 0 16 -26 7 -38 -13 -14 -21 -14 -21 -28 6 -8 15 -14 31
-14 36 0 15 112 10 166 -6 74 -23 86 -35 73 -73 -6 -17 -19 -34 -30 -37 -20
-7 -26 -31 -9 -37 6 -2 7 -15 2 -33 -10 -37 -4 -68 10 -58 7 4 9 0 5 -10 -4
-11 -1 -17 8 -17 7 0 16 -4 19 -8 8 -13 -16 -82 -26 -76 -4 3 -8 -4 -8 -15 0
-12 -9 -26 -19 -33 -10 -6 -17 -17 -14 -24 3 -8 -4 -10 -21 -7 -17 4 -28 0
-31 -10 -5 -12 -23 -14 -96 -10 -59 2 -97 -1 -112 -9 -12 -7 -28 -11 -34 -10
-12 3 -22 -3 -62 -38 -9 -8 -25 -17 -36 -18 -10 -2 -40 -14 -66 -27 -52 -25
-59 -23 -59 12 0 36 16 62 76 123 90 93 92 144 4 114 -61 -21 -130 -56 -130
-66 0 -4 -7 -8 -15 -8 -8 0 -15 -5 -15 -11 0 -6 -7 -9 -14 -6 -10 4 -13 1 -10
-7 3 -8 -5 -16 -20 -20 -14 -3 -25 -12 -23 -18 1 -7 -9 -13 -23 -14 -13 -1
-26 -6 -28 -12 -2 -6 -9 -9 -17 -6 -7 3 -16 1 -20 -5 -3 -6 2 -11 12 -11 28 0
-6 -19 -37 -21 -14 0 -19 -3 -12 -6 16 -6 -3 -33 -23 -33 -6 0 -20 -9 -30 -20
-10 -11 -24 -20 -30 -20 -7 0 -26 -7 -41 -16 -24 -13 -25 -15 -6 -11 15 4 22
1 19 -6 -2 -6 -18 -11 -35 -11 -17 1 -29 -3 -26 -7 3 -5 11 -9 18 -9 8 0 16
-9 19 -20 3 -13 1 -18 -6 -14 -7 3 -2 -3 11 -13 18 -15 20 -21 10 -32 -8 -8
-9 -15 -3 -17 6 -2 8 -25 6 -50 -2 -32 0 -44 8 -40 6 4 11 0 11 -8 0 -20 16
-21 24 -1 3 8 11 15 17 15 8 0 7 -5 -2 -16 -20 -24 -19 -43 2 -49 22 -7 29
-33 26 -93 -1 -30 -6 -41 -15 -37 -7 3 -11 1 -8 -3 2 -4 -9 -34 -25 -67 -16
-33 -29 -65 -29 -72 0 -7 -5 -13 -11 -13 -11 0 -6 -80 7 -135 4 -15 1 -14 -12
6 -17 26 -17 26 -37 6 -16 -16 -27 -18 -76 -12 -71 8 -98 8 -191 0 -63 -6 -85
-4 -138 14 -52 18 -76 21 -137 15 -44 -4 -85 -2 -104 4 -35 12 -87 -3 -112
-34 -40 -48 -127 -64 -246 -43 -53 9 -71 18 -104 50 -22 22 -53 42 -67 46 -32
8 -51 30 -52 61 0 14 6 22 18 22 9 0 23 4 31 9 21 13 -3 41 -35 41 -17 0 -28
11 -45 45 -22 43 -22 46 -5 82 11 25 15 52 11 78 -4 34 12 119 33 175 3 8 4
22 3 32 -3 26 16 30 32 7 l15 -21 24 27 c12 15 35 33 51 41 20 11 27 22 27 43
0 23 6 31 29 39 34 12 67 -6 81 -44 11 -29 52 -32 96 -9 16 8 23 15 16 15 -15
0 -42 24 -42 37 0 30 26 89 52 118 29 34 30 36 14 61 -10 13 -20 48 -23 77 -7
55 -26 79 -55 72 -10 -3 -26 -7 -37 -10 -14 -4 -20 1 -25 20 -4 14 -11 25 -16
25 -15 0 -12 43 6 68 8 12 21 22 29 22 18 0 87 38 97 53 3 6 3 20 -1 31 -5 12
-6 26 -4 33 7 20 -29 23 -91 9 -43 -10 -67 -23 -89 -46 -28 -30 -31 -39 -32
-104 -1 -62 -4 -71 -21 -74 -12 -2 -25 7 -36 25 -12 19 -18 23 -18 11 0 -21
-30 -17 -44 6 -8 12 -8 19 1 24 6 4 11 14 10 22 -1 8 2 71 6 140 8 111 11 129
33 158 17 21 23 39 19 52 -8 24 -23 26 -31 5 -8 -21 -68 -19 -90 3 -10 9 -28
18 -41 19 -20 2 -22 -1 -13 -18 6 -11 15 -17 19 -15 4 3 17 -1 27 -9 10 -8 14
-15 8 -15 -5 0 -9 -14 -8 -31 1 -17 -4 -42 -12 -57 -8 -15 -14 -21 -14 -14 0
6 -5 12 -11 12 -5 0 -8 -4 -5 -9 10 -16 -15 -70 -30 -64 -8 3 -14 0 -14 -6 0
-6 -8 -8 -17 -4 -21 8 -63 50 -63 64 0 5 -7 9 -15 9 -9 0 -28 11 -43 25 -15
14 -33 23 -40 20 -6 -2 -12 0 -12 5 0 6 -7 10 -15 10 -8 0 -15 -5 -15 -11 0
-13 -62 -39 -94 -39 -32 0 -46 -26 -39 -71 7 -48 29 -86 54 -94 20 -7 20 -8
-7 -25 -18 -11 -33 -14 -40 -8 -15 11 -36 7 -50 -11 -8 -10 -24 -12 -62 -6
-50 7 -52 8 -63 48 -6 23 -16 48 -21 54 -14 17 -3 84 26 163 19 54 28 67 61
84 21 10 40 28 43 38 2 10 13 18 23 18 11 0 19 7 19 16 0 10 -6 14 -14 11 -14
-5 -46 21 -46 38 0 4 -10 16 -22 26 -19 18 -20 22 -7 47 7 15 28 42 46 60 18
18 33 42 33 52 0 24 -37 60 -62 60 -10 0 -26 8 -36 18 -10 9 -29 23 -41 30
-20 11 -25 11 -35 -4 -9 -12 -19 -14 -37 -8 -13 5 -33 9 -44 9 -17 0 -20 7
-21 56 -1 30 -7 65 -13 77 -10 20 -9 72 4 113 7 20 168 104 184 95 5 -4 12 -2
16 4 4 7 12 7 25 0 16 -9 21 -6 26 14 3 14 2 31 -2 38 -6 10 -5 11 8 1 8 -7
17 -11 19 -9 3 3 4 -12 4 -33 0 -27 -3 -37 -12 -34 -7 3 -13 2 -13 -2 0 -13
23 -50 37 -59 10 -5 13 -18 9 -40 -6 -30 14 -108 27 -107 28 3 40 -2 59 -21
21 -21 22 -21 32 -3 16 27 104 115 116 115 17 0 11 53 -9 84 -15 23 -17 34 -9
52 6 13 16 24 21 24 5 0 -2 9 -15 20 -14 10 -35 42 -47 69 -21 49 -21 50 -2
83 14 26 24 33 46 31 26 -2 26 -1 11 16 -14 16 -13 31 3 31 13 0 43 -70 37
-85 -7 -20 33 -38 52 -23 9 8 12 4 12 -16 0 -14 5 -26 11 -26 7 0 9 8 4 23 -4
12 -9 36 -12 53 -4 27 -2 32 21 36 21 4 26 1 26 -14 0 -11 5 -16 11 -13 6 4
13 -2 16 -14 3 -12 10 -21 15 -21 6 0 7 11 4 25 -5 18 -2 25 9 25 8 0 15 7 15
15 0 14 3 13 25 -1 14 -9 25 -22 25 -30 0 -8 17 -15 44 -19 32 -5 46 -13 54
-30 11 -23 56 -32 68 -14 9 16 60 10 77 -9 10 -10 15 -21 11 -24 -3 -3 -5 -25
-6 -49 0 -24 -5 -50 -12 -58 -6 -8 -10 -16 -8 -18 1 -1 2 -4 1 -5 -6 -15 -5
-68 2 -68 5 0 9 -8 9 -18 0 -10 3 -22 7 -26 9 -8 14 -41 13 -85 -1 -43 -8 -55
-25 -41 -9 8 -17 4 -29 -14 -9 -14 -16 -30 -16 -36 0 -5 -4 -10 -10 -10 -22 0
-8 -20 18 -26 35 -9 54 -23 45 -37 -3 -5 -2 -7 4 -4 5 3 25 1 44 -6 24 -8 33
-17 31 -29 -2 -10 1 -18 7 -18 6 0 11 6 11 14 0 10 13 7 50 -13 28 -14 50 -33
50 -42 0 -29 22 -79 34 -79 17 0 51 73 37 78 -13 4 -15 32 -3 32 7 0 8 31 3
63 0 5 -11 6 -23 3 -13 -3 -17 -3 -10 0 24 11 11 24 -26 24 -32 0 -39 -4 -50
-30 -19 -42 -30 -37 -38 15 -3 25 -10 48 -15 51 -22 13 -7 30 24 28 37 -3 69
4 63 15 -3 4 -1 13 4 20 13 22 40 5 46 -29 7 -30 18 -38 29 -20 10 17 19 11
50 -31 22 -30 30 -52 31 -87 1 -26 14 -90 29 -142 22 -77 27 -114 26 -194 -2
-116 18 -219 61 -324 16 -41 31 -97 33 -125 9 -116 18 -174 31 -205 l14 -34
37 24 c56 34 160 33 197 -1 16 -15 29 -41 33 -64 3 -21 12 -45 19 -52 8 -8 18
-24 23 -36 5 -16 10 21 14 111 3 74 13 161 22 194 17 62 14 86 -6 42 -13 -28
-19 -30 -68 -20 -27 6 -31 11 -31 38 0 27 5 34 35 45 36 13 45 37 23 59 -18
18 -40 15 -37 -5 4 -49 -26 -63 -67 -30 -23 18 -26 25 -20 63 4 30 1 47 -8 57
-16 16 -3 47 20 47 21 0 14 40 -9 54 -13 8 -20 8 -26 -3 -5 -8 -15 -11 -23 -8
-10 3 -18 41 -27 129 -14 129 -12 142 22 218 13 28 26 93 35 175 16 148 16
131 12 250 -1 50 0 97 3 105 3 8 11 36 18 61 17 63 32 82 58 74 12 -3 21 -12
21 -19 0 -9 12 -12 35 -10 34 2 46 -8 25 -21 -5 -3 -10 -12 -10 -18 0 -7 9 -2
18 11 15 19 20 21 29 10 7 -7 13 -26 15 -40 6 -40 14 -43 53 -22 51 27 56 60
16 91 -17 13 -31 29 -31 35 0 5 -15 24 -33 42 -32 31 -33 33 -30 109 1 44 -2
77 -7 77 -6 0 -10 -5 -10 -11 0 -6 -7 -9 -15 -5 -8 3 -15 0 -15 -6 0 -6 -3 -9
-6 -6 -3 3 0 15 8 27 11 17 10 23 -3 37 -14 13 -20 14 -40 2 -50 -28 -54 -38
-28 -61 14 -13 23 -30 21 -40 -2 -10 2 -24 8 -32 10 -12 10 -18 -1 -31 -10
-13 -10 -17 2 -24 19 -12 0 -44 -29 -48 -16 -2 -22 4 -27 30 -4 18 -12 42 -18
53 -6 11 -11 36 -11 56 -1 20 -6 42 -12 50 -11 14 -14 27 -14 86 -1 23 -4 31
-15 27 -10 -4 -16 5 -20 30 -4 19 -4 40 0 45 3 6 -5 15 -20 21 -14 5 -23 14
-20 20 3 5 -1 20 -9 32 -9 12 -16 33 -16 45 0 14 -6 23 -15 23 -17 0 -19 18
-6 39 8 12 11 12 23 0 35 -37 50 -72 44 -104 l-7 -33 31 11 c30 11 31 15 27
54 -2 24 0 43 5 43 4 0 8 5 8 11 0 6 -7 9 -15 5 -8 -3 -15 -4 -15 -3 0 1 4 17
9 34 6 20 6 35 0 38 -5 4 -5 15 2 27 13 25 19 227 7 234 -5 3 -6 15 -3 27 6
22 6 22 -10 2 -8 -11 -13 -25 -10 -33 2 -7 0 -10 -5 -7 -6 4 -10 -13 -10 -44
0 -27 -4 -52 -10 -56 -5 -3 -6 -13 -3 -22 4 -11 2 -14 -5 -9 -13 8 -32 -23
-32 -52 0 -10 -9 -27 -20 -37 -12 -11 -20 -28 -18 -39 1 -12 -2 -22 -7 -23 -6
-2 -10 5 -10 15 -1 10 -10 31 -22 47 -37 53 -67 129 -66 170 0 22 3 78 6 124
4 46 4 87 2 92 -3 4 -37 -8 -75 -27 -39 -19 -75 -34 -81 -34 -6 0 -36 25 -67
56 l-57 56 -5 -76 c-5 -61 -11 -81 -30 -103 -33 -37 -42 -43 -63 -43 -28 0
-104 38 -111 56 -10 26 -7 144 4 144 6 0 10 8 10 18 0 10 8 27 18 38 14 14 17
26 11 42 -5 13 -4 24 3 28 7 4 6 9 -3 15 -10 6 -11 9 -1 9 6 0 12 5 12 10 0 7
-35 9 -95 8 -90 -3 -96 -2 -120 23 -18 17 -27 38 -28 65 -3 37 -5 39 -33 35
-46 -5 -63 -18 -57 -43 4 -13 12 -27 20 -31 7 -4 13 -24 13 -43 0 -28 -8 -44
-34 -70 -34 -34 -54 -39 -91 -25 -13 5 -28 3 -43 -7 -44 -29 -142 5 -142 50 0
15 -6 14 -56 -8 -31 -14 -59 -22 -62 -19 -3 3 -14 -2 -24 -12 -11 -9 -18 -11
-18 -5 0 7 -7 12 -16 12 -20 0 -84 66 -84 86 0 8 -8 14 -18 14 -10 0 -28 11
-41 23 -18 20 -21 34 -19 86 1 34 5 64 9 67 4 2 6 20 4 39 -3 40 6 50 58 58
20 3 49 15 64 26 l26 21 -477 0 -476 0 0 -505z m190 389 c0 -9 9 -27 20 -41
26 -33 25 -56 -1 -103 -36 -63 -84 -64 -113 -3 -23 49 -13 85 37 128 45 39 57
43 57 19z m-30 -252 c13 -10 23 -33 27 -59 5 -36 2 -45 -22 -67 -39 -36 -77
-34 -110 6 -32 38 -29 81 11 116 30 27 64 28 94 4z m632 -109 c27 -32 40 -87
27 -119 -6 -16 -11 -44 -10 -63 l0 -34 -49 6 c-65 8 -97 31 -111 78 -10 32 -9
46 5 84 10 25 25 49 34 55 28 16 87 12 104 -7z m-401 -43 c26 -26 30 -36 27
-77 -3 -41 -7 -50 -37 -70 -27 -18 -47 -23 -90 -22 -31 1 -68 -2 -83 -6 -21
-6 -32 -2 -52 18 -52 52 -15 129 63 133 26 1 51 9 64 22 44 40 70 40 108 2z
m1039 5 c0 -11 7 -13 28 -9 21 4 33 -1 55 -24 52 -55 33 -152 -32 -167 -67
-14 -94 19 -93 112 1 63 14 103 32 103 6 0 10 -7 10 -15z m-1030 -179 c0 -2
-7 -6 -15 -10 -8 -3 -15 -1 -15 4 0 6 7 10 15 10 8 0 15 -2 15 -4z m4612 -108
c-8 -8 -9 -4 -5 13 4 13 8 18 11 10 2 -7 -1 -18 -6 -23z m18 -32 c0 -3 -4 -8
-10 -11 -5 -3 -10 -1 -10 4 0 6 5 11 10 11 6 0 10 -2 10 -4z m-3916 -73 c4 -5
12 -9 17 -9 5 -1 14 -2 19 -3 18 -2 11 -104 -10 -138 -16 -27 -26 -33 -54 -33
-44 0 -78 39 -73 84 4 37 31 92 49 99 20 8 44 8 52 0z m959 -327 c29 -1 65
-78 64 -133 0 -24 -3 -40 -6 -35 -11 16 -51 9 -51 -9 0 -10 -6 -20 -12 -22
-10 -4 -10 -7 0 -15 7 -5 10 -16 6 -26 -6 -15 -8 -16 -24 -1 -27 25 -47 165
-30 215 7 22 17 37 23 33 5 -3 19 -6 30 -7z m-837 -8 c21 -34 -3 -178 -29
-178 -4 0 -6 3 -4 8 3 4 -9 7 -26 7 -22 0 -31 4 -29 14 1 7 -2 19 -8 26 -13
16 -16 61 -6 91 11 36 86 59 102 32z m-411 -28 c3 -5 -1 -10 -9 -10 -9 0 -16
5 -16 10 0 6 4 10 9 10 6 0 13 -4 16 -10z m-705 -210 c0 -5 -4 -10 -10 -10 -5
0 -10 5 -10 10 0 6 5 10 10 10 6 0 10 -4 10 -10z m2103 -33 c10 -25 -5 -67
-23 -67 -17 0 -30 26 -30 63 0 20 45 24 53 4z m-3 -93 c0 -8 -5 -12 -10 -9 -6
4 -8 11 -5 16 9 14 15 11 15 -7z m2200 -239 c11 -13 10 -14 -4 -9 -9 3 -16 10
-16 15 0 13 6 11 20 -6z m-35 -5 c3 -5 -1 -10 -9 -10 -9 0 -16 5 -16 10 0 6 4
10 9 10 6 0 13 -4 16 -10z m208 -7 c-6 -16 -25 -13 -31 5 -2 6 6 10 16 9 12
-1 18 -6 15 -14z m-266 -49 c-3 -3 -12 -4 -19 -1 -8 3 -5 6 6 6 11 1 17 -2 13
-5z m72 -20 c-13 -7 -28 -9 -34 -6 -5 4 0 8 13 10 12 2 20 8 17 13 -3 5 1 6
11 2 14 -5 13 -8 -7 -19z m257 14 c5 -7 2 -9 -9 -5 -9 3 -18 1 -20 -6 -2 -7
-8 -9 -12 -5 -10 9 3 28 20 28 8 0 17 -5 21 -12z m236 -20 c-6 -6 -15 -8 -19
-4 -4 4 -1 11 7 16 19 12 27 3 12 -12z m-4445 0 c30 2 33 -1 45 -40 7 -24 19
-43 30 -46 13 -3 15 -8 8 -22 -12 -23 -50 -33 -57 -14 -3 8 -11 14 -17 14 -7
0 -18 12 -24 26 -7 14 -17 22 -22 19 -6 -3 -13 1 -16 9 -3 9 -12 16 -19 16
-18 0 -38 27 -30 40 4 7 18 8 38 4 18 -5 46 -7 64 -6z m4097 -31 c6 3 6 0 -1
-7 -10 -11 -20 -10 -53 5 -22 10 -45 24 -51 32 -7 7 12 2 41 -11 30 -14 58
-22 64 -19z m51 8 c56 -33 71 -51 50 -59 -8 -3 -15 0 -15 6 0 11 -29 37 -43
38 -5 0 -5 -4 -2 -10 4 -6 -1 -7 -11 -3 -13 5 -14 8 -5 11 10 3 7 10 -10 23
-35 27 -15 23 36 -6z m-4289 -25 c8 0 14 5 14 10 0 6 3 10 8 10 4 0 7 -37 8
-82 1 -46 3 -105 6 -131 7 -59 -10 -72 -92 -72 -55 0 -55 0 -72 40 -9 22 -14
51 -12 65 2 14 6 56 10 93 4 49 11 74 26 89 19 19 19 19 54 -1 19 -12 42 -21
50 -21z m4453 26 c15 -8 34 -23 42 -33 13 -17 13 -17 -6 -2 -11 9 -25 15 -31
12 -6 -2 -19 6 -29 17 -21 24 -14 25 24 6z m87 -43 c-7 -7 -26 7 -26 19 0 6 6
6 15 -2 9 -7 13 -15 11 -17z m34 12 c11 -13 10 -14 -4 -9 -9 3 -16 10 -16 15
0 13 6 11 20 -6z m-1685 -65 c3 -6 -1 -7 -9 -4 -18 7 -21 14 -7 14 6 0 13 -4
16 -10z m71 -51 c19 -22 19 -22 -3 -8 -13 8 -23 17 -23 21 0 12 6 9 26 -13z
m2888 -16 c51 -50 54 -56 42 -75 -8 -13 -8 -23 2 -38 19 -30 15 -37 -28 -56
-35 -16 -40 -22 -40 -50 0 -18 -5 -34 -11 -36 -5 -2 -12 -15 -13 -28 -6 -45
-17 -59 -51 -66 -34 -6 -92 14 -128 45 -17 14 -18 14 -12 -9 3 -14 1 -45 -4
-70 -23 -101 -45 -175 -55 -182 -6 -4 -11 -15 -11 -25 0 -24 -56 -54 -106 -56
-39 -2 -45 1 -58 27 -12 26 -12 33 0 55 8 14 25 30 37 36 31 14 28 30 -8 45
-17 7 -36 22 -42 33 -24 46 -7 299 26 378 35 84 129 123 183 75 29 -25 58 -29
74 -10 6 8 19 14 28 14 9 0 21 4 27 9 9 10 52 17 93 15 13 0 37 -14 55 -31z
m-5427 8 c-3 -12 4 -28 19 -42 13 -12 22 -25 19 -28 -2 -4 0 -13 4 -20 5 -8
-1 -22 -15 -38 -30 -32 -101 -38 -131 -10 -27 23 -43 21 -43 -5 0 -29 -7 -38
-52 -72 -34 -26 -37 -26 -42 -8 -8 23 -40 34 -55 19 -7 -7 -12 -1 -17 17 -8
34 23 96 48 96 9 0 21 6 25 13 10 16 49 37 67 37 8 0 19 -8 24 -17 9 -15 15
-11 50 26 34 36 45 42 66 37 15 -4 26 -2 26 4 0 5 3 10 6 10 4 0 4 -9 1 -19z
m5839 -42 c16 -38 17 -42 1 -68 -17 -29 -14 -43 8 -35 7 3 31 0 53 -5 31 -9
44 -19 58 -49 l17 -37 18 40 c10 22 17 46 14 53 -5 15 0 15 26 2 15 -9 21 -7
25 5 9 21 44 19 69 -5 16 -15 20 -29 17 -50 -4 -27 -8 -30 -39 -30 -33 0 -34
-1 -28 -30 4 -18 2 -36 -4 -44 -18 -21 -59 -155 -54 -174 4 -16 39 -40 96 -64
29 -13 37 -51 17 -89 -12 -22 -68 -27 -76 -5 -8 22 -79 40 -111 29 -44 -16
-142 -16 -166 0 -40 25 -67 27 -89 5 l-21 -21 -16 21 c-9 11 -44 33 -79 49
-51 23 -64 34 -73 60 -7 21 -17 33 -29 33 -10 0 -20 10 -24 23 -10 38 -7 47
17 47 26 0 87 35 87 50 0 17 22 11 71 -21 27 -17 51 -39 54 -50 9 -26 39 -24
83 6 20 14 41 25 46 25 5 0 19 11 31 24 l22 24 -34 26 c-28 23 -32 31 -26 54
17 65 -6 105 -68 117 -69 13 -69 89 -1 124 50 25 84 13 108 -40z m-3411 21 c3
-6 -1 -7 -9 -4 -18 7 -21 14 -7 14 6 0 13 -4 16 -10z m658 -117 c-13 -2 -23
-12 -23 -20 0 -9 -3 -14 -6 -10 -13 13 6 37 28 36 l23 -2 -22 -4z m-96 -79
c-3 -3 -12 -4 -19 -1 -8 3 -5 6 6 6 11 1 17 -2 13 -5z m-1057 -78 c0 -10 -7
-12 -22 -8 -21 5 -21 6 -2 13 10 4 20 8 22 8 1 1 2 -5 2 -13z m347 -2 c-3 -3
-12 -4 -19 -1 -8 3 -5 6 6 6 11 1 17 -2 13 -5z m-2726 -39 c-1 -15 -24 -12
-29 3 -3 9 2 13 12 10 10 -1 17 -7 17 -13z m353 -51 c7 -9 28 -16 49 -17 32
-1 37 -4 37 -24 0 -13 -7 -26 -15 -29 -8 -4 -15 -12 -15 -20 0 -8 -5 -14 -11
-14 -14 0 -48 -41 -49 -57 0 -19 -18 -15 -30 6 -11 22 -14 154 -3 164 11 11
25 8 37 -9z m2431 6 c-3 -5 -12 -10 -18 -10 -7 0 -6 4 3 10 19 12 23 12 15 0z
m535 -10 c0 -5 -5 -10 -11 -10 -5 0 -7 5 -4 10 3 6 8 10 11 10 2 0 4 -4 4 -10z
m27 -83 c7 -5 10 -13 7 -18 -3 -5 0 -9 6 -9 8 0 8 -6 0 -20 -10 -18 -8 -20 25
-20 19 0 35 -5 35 -11 0 -13 -30 -10 -202 23 -94 18 -118 26 -118 40 0 15 4
15 48 -2 56 -20 115 -33 109 -22 -8 12 12 54 22 47 5 -3 12 -1 16 4 6 11 31 5
52 -12z m518 -22 c226 -32 462 -97 515 -141 44 -37 37 -51 -7 -15 -83 66 -405
139 -683 156 -96 6 -194 -2 -245 -21 -16 -5 -18 -4 -8 6 6 7 26 16 45 20 55
13 277 11 383 -5z m122 -51 c-3 -3 -12 -4 -19 -1 -8 3 -5 6 6 6 11 1 17 -2 13
-5z m50 -10 c-3 -3 -12 -4 -19 -1 -8 3 -5 6 6 6 11 1 17 -2 13 -5z m-3767 -14
c0 -5 -4 -10 -10 -10 -5 0 -10 5 -10 10 0 6 5 10 10 10 6 0 10 -4 10 -10z
m3813 3 c-7 -2 -19 -2 -25 0 -7 3 -2 5 12 5 14 0 19 -2 13 -5z m62 -13 c13 -5
14 -9 5 -9 -8 0 -24 4 -35 9 -13 5 -14 9 -5 9 8 0 24 -4 35 -9z m52 -16 c-3
-3 -12 -4 -19 -1 -8 3 -5 6 6 6 11 1 17 -2 13 -5z m43 -14 c8 -5 11 -10 5 -10
-5 0 -17 5 -25 10 -8 5 -10 10 -5 10 6 0 17 -5 25 -10z m-741 -26 c2 -2 -16
-4 -40 -4 -31 0 -40 3 -29 10 13 8 57 4 69 -6z m814 0 c41 -21 77 -54 77 -70
0 -13 11 -18 68 -29 18 -4 30 -10 27 -14 -2 -5 -24 -4 -49 2 -34 8 -47 16 -59
41 -10 21 -32 40 -68 58 -30 15 -48 27 -41 28 7 0 27 -7 45 -16z m1632 -41
c34 -32 73 -65 85 -74 22 -15 23 -21 24 -147 l1 -131 36 -38 c20 -21 41 -47
47 -58 6 -12 22 -27 35 -34 22 -12 27 -11 46 8 32 32 64 27 104 -18 19 -21 38
-49 42 -62 4 -13 16 -32 26 -42 13 -12 17 -26 13 -42 -3 -14 2 -38 14 -62 11
-21 28 -55 37 -75 10 -21 24 -38 31 -38 14 0 27 -28 18 -41 -3 -6 -14 -7 -24
-4 -13 4 -22 -1 -30 -14 -14 -26 -75 -42 -141 -37 -41 3 -63 -1 -94 -17 -41
-22 -87 -28 -330 -42 -89 -6 -117 -4 -147 9 -20 9 -39 20 -43 26 -3 5 -42 10
-85 10 -78 0 -80 1 -86 27 -8 30 4 55 29 59 24 3 105 56 112 73 3 8 -1 21 -10
30 -12 13 -47 15 -210 13 -115 -1 -197 3 -200 8 -6 10 16 64 54 130 40 70 60
138 65 216 3 43 2 85 -3 92 -4 7 -31 15 -60 19 -53 6 -74 19 -47 29 9 3 16 17
16 30 0 16 7 25 23 28 58 12 77 13 77 2 0 -7 3 -8 8 -1 4 6 32 18 62 28 30 9
77 32 104 50 70 46 109 65 122 60 6 -2 14 7 18 20 10 41 62 67 135 67 l64 0
62 -57z m-5605 24 c0 -7 8 -24 17 -37 23 -32 24 -86 4 -127 -17 -37 -31 -43
-31 -15 0 11 -9 29 -20 42 -24 28 -23 22 -5 67 8 19 15 46 15 59 0 13 5 24 10
24 6 0 10 -6 10 -13z m3666 -40 c8 3 14 1 14 -5 0 -5 -11 -12 -25 -14 -15 -3
-25 -1 -25 7 0 16 14 29 18 16 2 -5 10 -7 18 -4z m-2900 -23 c1 -14 -1 -23 -4
-20 -3 3 -11 1 -19 -5 -10 -9 -13 -6 -13 14 0 22 9 33 30 36 3 1 6 -11 6 -25z
m2405 6 c5 0 9 -4 9 -10 0 -16 -26 -12 -41 7 -12 15 -12 16 4 10 10 -4 23 -7
28 -7z m339 -50 c49 -17 119 -37 156 -46 97 -22 171 -62 145 -78 -5 -4 -12 -2
-16 4 -3 5 -22 7 -42 4 -21 -3 -39 -1 -42 5 -4 6 -23 13 -42 16 -53 9 -112 16
-131 18 -10 1 -18 4 -18 7 0 3 -23 6 -52 6 -31 1 -54 6 -56 13 -2 7 -16 17
-30 22 -15 6 -22 13 -16 17 6 4 13 15 17 25 9 23 24 22 127 -13z m-2693 -12
c-3 -8 -6 -5 -6 6 -1 11 2 17 5 13 3 -3 4 -12 1 -19z m3390 16 c-3 -3 -12 -4
-19 -1 -8 3 -5 6 6 6 11 1 17 -2 13 -5z m-1030 -140 c15 0 37 -4 47 -9 14 -6
17 -5 12 3 -4 7 -1 15 8 18 9 3 14 9 11 13 -2 4 1 8 8 9 7 0 23 4 37 7 14 4 6
-4 -18 -16 -24 -13 -39 -25 -33 -27 6 -2 9 -8 5 -13 -3 -5 0 -9 5 -9 6 0 11 7
11 15 0 8 6 15 14 15 8 0 17 6 19 13 3 7 6 5 6 -5 1 -10 12 -20 26 -24 14 -3
25 -10 25 -15 0 -5 9 -9 21 -9 11 0 18 -4 14 -9 -3 -5 0 -13 6 -17 7 -4 9 -3
6 3 -4 6 0 13 8 17 8 3 14 1 12 -3 -3 -13 63 -56 99 -65 16 -4 32 -12 35 -18
9 -14 264 -22 314 -10 33 9 25 10 -45 5 -62 -3 -81 -2 -70 6 8 6 11 11 5 12
-20 2 41 17 73 18 22 1 31 -3 26 -10 -5 -8 -1 -8 14 0 11 6 22 22 25 36 4 24
2 26 -22 21 -14 -3 -20 -3 -13 0 6 3 9 10 6 16 -8 12 14 28 39 28 11 0 15 -5
11 -11 -5 -8 6 -9 35 -4 l42 7 -15 -35 c-20 -48 3 -58 38 -16 l26 30 77 -36
c63 -29 71 -35 41 -30 -38 6 -38 6 -32 -25 5 -23 3 -30 -9 -30 -8 0 -21 -8
-28 -17 -12 -16 -12 -17 1 -7 12 8 23 6 49 -13 26 -18 30 -23 15 -24 -18 0
-18 -1 1 -9 14 -6 15 -9 5 -10 -12 0 -12 -3 3 -14 9 -7 17 -16 17 -20 0 -12
-16 -6 -39 15 -15 14 -26 18 -33 11 -15 -15 -5 -47 15 -44 9 2 17 -2 17 -7 0
-6 -17 -13 -37 -16 -21 -4 -47 -9 -58 -12 -16 -4 -18 -3 -7 8 17 18 15 32 -3
26 -8 -4 -17 -2 -20 3 -3 4 1 11 7 13 7 3 3 6 -9 6 -26 1 -30 -11 -8 -29 8 -7
15 -18 14 -24 0 -7 -2 -6 -6 2 -7 19 -23 14 -17 -5 5 -15 4 -15 -4 -3 -6 8 -8
19 -5 25 3 5 0 4 -8 -2 -15 -15 -53 -18 -44 -3 3 5 13 7 23 4 14 -5 14 -4 2 4
-8 6 -18 8 -23 5 -5 -3 -13 1 -18 8 -8 12 -10 12 -18 0 -5 -8 -16 -11 -30 -6
-23 7 -28 -4 -10 -22 9 -9 7 -10 -10 -6 -11 3 -21 9 -21 14 0 5 -7 9 -17 9
-13 0 -12 -4 7 -20 l23 -20 -23 -18 c-16 -13 -20 -21 -12 -26 7 -4 12 -2 12 4
0 6 5 8 10 5 8 -5 7 -11 -1 -21 -8 -10 -15 -11 -24 -4 -6 5 -15 7 -18 3 -4 -3
-7 1 -7 10 0 9 -5 17 -11 17 -6 0 -9 -7 -6 -14 4 -10 1 -13 -7 -10 -21 8 -28
-12 -11 -29 8 -9 15 -19 15 -24 0 -4 -16 9 -35 30 l-35 38 0 -28 c0 -20 -3
-24 -9 -14 -7 11 -15 11 -46 1 -29 -10 -39 -10 -48 0 -9 10 -7 12 9 8 11 -3
28 1 38 8 15 10 12 11 -23 7 -27 -4 -41 -2 -41 6 0 6 -9 11 -20 11 -11 0 -25
9 -32 20 -7 11 -17 20 -23 20 -5 0 -18 14 -27 31 -10 17 -22 27 -28 24 -5 -3
-10 -1 -10 4 0 6 5 11 10 11 6 0 10 5 10 11 0 6 -9 8 -20 4 -15 -5 -29 2 -52
27 -18 18 -31 36 -30 41 1 4 -5 7 -14 7 -8 0 -13 4 -10 9 4 5 -8 21 -25 35
-18 15 -27 31 -23 38 5 8 2 9 -9 5 -10 -3 -17 -3 -17 2 0 4 -23 18 -51 32 -59
27 -97 71 -104 120 -5 32 -4 31 20 -16 20 -41 29 -50 52 -51z m-2372 19 c-4
-18 -11 -23 -28 -21 -33 5 -33 36 0 64 28 24 28 24 31 3 2 -12 1 -32 -3 -46z
m3778 60 c-7 -2 -19 -2 -25 0 -7 3 -2 5 12 5 14 0 19 -2 13 -5z m-1318 -13 c3
-5 1 -10 -4 -10 -6 0 -11 5 -11 10 0 6 2 10 4 10 3 0 8 -4 11 -10z m-2395 -52
c0 -25 -2 -27 -14 -16 -7 8 -16 23 -20 35 -6 18 -3 20 14 16 14 -4 20 -14 20
-35z m-730 -76 c0 -16 -9 -37 -19 -46 -19 -17 -20 -17 -31 4 -10 18 -8 26 11
46 29 31 39 30 39 -4z m4007 13 c0 -8 -4 -12 -9 -9 -4 3 -8 9 -8 15 0 5 4 9 8
9 5 0 9 -7 9 -15z m-4123 -48 c-9 -71 -17 -93 -36 -102 -14 -7 -22 -21 -23
-40 -1 -16 -6 -45 -10 -63 -6 -30 -4 -34 23 -44 26 -10 31 -17 34 -57 6 -56 3
-61 -46 -100 -29 -23 -45 -29 -64 -24 -18 4 -23 2 -20 -8 6 -19 -18 -41 -40
-37 -10 2 -18 14 -20 30 -2 15 -10 32 -18 38 -17 15 -19 47 -2 52 7 3 9 11 3
24 -4 10 -7 22 -7 27 1 4 -2 7 -6 7 -5 0 -7 14 -4 30 2 18 10 30 19 30 8 0 13
6 10 13 -2 6 2 28 10 47 13 32 13 36 -6 52 -12 9 -30 14 -41 11 -11 -3 -32 2
-46 12 -20 13 -23 19 -13 31 7 9 8 18 2 27 -5 6 -10 23 -11 37 -1 17 1 21 7
11 6 -9 18 -11 34 -7 19 4 28 0 41 -19 9 -14 21 -23 27 -19 6 3 16 -2 24 -12
11 -15 16 -17 26 -6 7 6 27 12 44 12 42 0 79 11 66 20 -8 4 -7 16 4 38 20 40
45 33 39 -11z m2983 -37 c-1 -11 -5 -20 -9 -20 -4 0 -8 9 -8 20 0 11 4 20 9
20 6 0 9 -9 8 -20z m-2459 -61 c15 -9 20 -23 19 -53 0 -23 3 -70 7 -106 l7
-65 -40 -28 c-23 -16 -41 -35 -41 -43 0 -8 -4 -14 -10 -14 -5 0 -10 5 -10 11
0 6 -7 9 -15 5 -8 -3 -15 0 -15 6 0 9 -3 9 -11 1 -6 -6 -26 -9 -45 -6 -19 3
-39 1 -46 -4 -7 -6 -33 -8 -58 -4 -48 6 -61 23 -73 88 -11 59 22 77 160 86 20
2 25 11 34 59 10 49 16 59 43 72 34 17 62 15 94 -5z m547 -28 c8 -20 0 -24
-30 -17 -23 6 -34 33 -19 49 8 8 42 -14 49 -32z m3111 13 c-3 -15 -8 -29 -11
-32 -3 -3 -3 5 -1 19 2 13 5 27 5 32 1 4 3 7 6 7 3 0 3 -12 1 -26z m-1050 -9
c17 -27 11 -84 -9 -86 -56 -5 -121 20 -125 49 -5 37 24 62 74 62 35 0 47 -5
60 -25z m-661 -88 c0 -9 4 -17 9 -16 8 0 36 -39 61 -86 6 -11 15 -21 20 -21
34 -5 55 -20 63 -44 12 -32 12 -32 -63 -127 -26 -32 -21 -31 -171 -48 -21 -3
-71 19 -66 29 10 25 -2 48 -33 63 -19 9 -35 22 -35 29 0 14 31 40 79 66 35 19
42 48 11 48 -26 0 -26 27 1 35 11 4 18 9 16 12 -7 6 38 53 50 53 6 0 16 7 23
15 16 19 35 14 35 -8z m1425 -27 c0 -5 -4 -10 -10 -10 -5 0 -10 5 -10 10 0 6
5 10 10 10 6 0 10 -4 10 -10z m-350 -80 c0 -15 -5 -12 -26 11 -19 22 -19 22 4
10 12 -6 22 -16 22 -21z m100 -15 c-7 -9 -15 -13 -17 -11 -7 7 7 26 19 26 6 0
6 -6 -2 -15z m77 -50 c0 -8 -4 -12 -9 -9 -4 3 -8 9 -8 15 0 5 4 9 8 9 5 0 9
-7 9 -15z m-3088 -30 c50 -58 38 -115 -33 -149 -43 -20 -82 -21 -94 0 -5 8
-22 24 -38 35 -16 11 -22 19 -14 18 32 -3 40 2 40 25 0 39 19 77 40 83 11 3
20 9 20 14 0 23 50 6 79 -26z m4256 -45 c25 -49 38 -138 25 -170 -21 -52 -87
-67 -177 -41 -24 6 -43 15 -43 20 0 4 17 28 39 52 21 24 45 58 54 75 20 39 66
94 78 94 5 0 16 -14 24 -30z m-2283 -55 c-3 -20 0 -25 15 -25 10 0 28 7 40 15
12 8 28 12 37 9 17 -7 22 -24 7 -24 -5 0 -8 -7 -7 -16 0 -9 -6 -19 -14 -21
-13 -4 -13 -3 0 6 22 16 7 13 -26 -4 -37 -19 -58 -19 -74 0 -8 10 -21 13 -38
8 l-25 -6 19 25 c11 15 25 23 34 20 8 -3 12 -2 8 3 -6 6 15 31 28 35 1 0 -1
-11 -4 -25z m2028 -20 c0 -2 -7 -5 -15 -9 -9 -3 -15 0 -15 9 0 9 6 12 15 9 8
-4 15 -7 15 -9z m-4665 -4 c70 -12 109 -58 130 -157 21 -92 33 -103 70 -64 25
26 32 28 79 23 59 -7 92 -25 110 -62 28 -57 -14 -101 -112 -116 -33 -5 -50 -2
-76 14 -39 25 -46 26 -46 7 0 -23 -47 -73 -79 -84 -45 -16 -84 16 -125 101
-18 40 -37 88 -41 107 -4 19 -23 52 -41 73 -28 30 -34 45 -34 82 0 80 37 97
165 76z m445 -7 c0 -7 13 -15 29 -19 45 -10 58 -31 41 -62 -13 -21 -24 -26
-68 -28 -49 -4 -53 -2 -67 26 -9 16 -12 35 -8 42 8 13 10 18 12 40 1 18 61 18
61 1z m1975 -134 c46 -45 70 -52 60 -17 -5 17 -4 19 4 7 8 -11 11 -11 11 -2 0
10 5 10 21 2 16 -9 19 -17 14 -38 -6 -24 -5 -25 7 -10 9 12 20 16 36 12 22 -6
25 -31 3 -26 -6 1 -19 -14 -28 -33 -17 -35 -45 -46 -59 -24 -5 8 -8 8 -13 0
-4 -6 -16 -12 -26 -14 -11 -1 -26 -6 -34 -11 -11 -7 -11 -10 0 -17 10 -6 10
-9 2 -9 -7 0 -1 -11 13 -25 14 -14 22 -30 19 -35 -4 -6 -10 -8 -14 -6 -4 3 -7
-7 -6 -21 0 -15 6 -28 13 -31 6 -2 10 -7 7 -11 -2 -5 11 -17 30 -27 19 -10 35
-22 35 -26 0 -4 7 -5 15 -2 11 5 13 2 9 -10 -4 -12 0 -16 16 -16 12 0 36 -7
53 -16 58 -31 67 -34 82 -34 8 0 15 -8 15 -17 1 -17 1 -17 11 -1 5 9 16 15 24
12 8 -4 12 -10 9 -15 -3 -5 2 -12 10 -15 9 -3 13 -10 10 -15 -3 -5 6 -9 19 -9
23 0 24 -2 14 -24 -8 -16 -16 -21 -21 -15 -6 5 -19 9 -30 9 -18 0 -19 -2 -6
-11 11 -7 5 -8 -22 -5 -25 4 -40 1 -45 -8 -13 -21 -70 -28 -87 -11 -8 8 -25
15 -38 15 -13 0 -39 0 -58 1 -19 0 -53 0 -75 -1 -22 -1 -60 3 -85 10 -25 6
-57 14 -72 17 -16 3 -29 9 -29 14 -1 5 -2 15 -3 22 -1 6 -10 11 -21 9 -34 -5
-46 -12 -40 -21 3 -5 1 -12 -5 -16 -5 -3 -10 3 -10 14 0 10 -6 22 -12 24 -7 3
-3 6 9 6 12 1 24 5 28 11 3 5 13 6 22 3 13 -5 13 -2 -3 23 -10 16 -23 36 -30
44 -7 8 -16 27 -19 42 -4 16 -12 25 -18 21 -6 -4 -8 0 -4 10 4 10 2 17 -5 17
-7 0 -7 4 0 13 8 9 7 21 -3 40 -13 25 -12 30 5 47 10 10 16 21 13 24 -12 11 9
59 42 93 19 21 35 43 35 50 0 6 8 17 18 22 9 6 13 11 9 11 -4 0 -2 6 5 14 9 9
19 11 30 5 10 -6 26 -4 45 6 41 22 54 18 98 -25z m4071 8 c47 -36 54 -50 52
-102 -2 -59 -24 -86 -68 -86 -25 0 -36 9 -62 45 l-32 45 -23 -37 c-13 -21 -23
-41 -23 -45 0 -17 -60 -36 -132 -43 -70 -7 -80 -5 -108 15 -29 21 -31 25 -25
64 10 60 28 82 79 95 25 6 48 15 51 21 17 28 127 -7 141 -45 10 -25 22 -17 45
27 36 71 59 81 105 46z m-799 -34 c13 -8 30 -26 39 -40 23 -34 65 -54 113 -54
37 0 42 -3 54 -32 20 -50 11 -77 -34 -95 -22 -8 -39 -19 -39 -24 0 -8 -63 -29
-87 -29 -7 0 -13 6 -14 13 0 19 -56 58 -97 69 -20 5 -63 15 -95 23 -72 16
-107 46 -107 92 0 46 35 80 91 87 115 15 138 14 176 -10z m-3057 -53 c0 -6 -4
-13 -10 -16 -5 -3 -10 -1 -10 5 0 6 -5 8 -12 4 -7 -4 -8 -3 -4 4 9 14 36 16
36 3z m1948 -3 c-2 -6 -14 -15 -26 -19 -20 -8 -21 -6 -12 11 11 21 44 28 38 8z
m736 -22 c36 -33 34 -72 -5 -107 -42 -37 -94 -46 -128 -22 -36 26 -115 28
-162 3 -31 -15 -95 -21 -104 -8 0 2 -11 16 -23 32 -20 26 -20 30 -7 56 8 16
21 32 27 36 25 16 134 22 214 13 65 -7 89 -6 115 6 44 19 44 19 73 -9z m-560
-11 c72 -34 89 -166 30 -230 -19 -21 -32 -25 -78 -25 -30 0 -58 5 -61 11 -4 6
-14 8 -22 4 -14 -5 -15 2 -8 47 5 29 9 81 9 116 1 51 5 66 20 78 26 18 70 18
110 -1z m-3283 -224 c42 -51 15 -111 -59 -130 -70 -19 -180 -25 -197 -11 -9 7
-39 17 -67 21 -71 11 -98 31 -98 74 0 22 8 41 20 53 19 18 37 19 202 18 176
-2 181 -2 199 -25z m2779 -11 c0 -5 -5 -10 -11 -10 -5 0 -7 5 -4 10 3 6 8 10
11 10 2 0 4 -4 4 -10z m-2100 -43 c0 -20 -25 1 -28 24 -2 23 -2 23 13 5 8 -11
15 -24 15 -29z m2166 9 c43 -3 90 -8 104 -11 14 -3 63 -8 110 -11 47 -3 108
-11 135 -18 28 -8 102 -22 165 -31 63 -10 183 -33 265 -51 83 -19 213 -45 290
-59 124 -21 195 -42 380 -111 22 -9 44 -20 50 -25 5 -5 28 -9 51 -9 51 0 110
-38 78 -51 -17 -7 -16 -8 4 -8 13 -1 39 -13 58 -27 38 -29 39 -43 2 -23 -12 7
-48 14 -78 15 -30 2 -81 5 -112 8 -45 3 -67 -1 -108 -20 -29 -13 -56 -24 -61
-24 -9 0 -21 -9 -54 -38 -9 -8 -20 -12 -27 -10 -12 4 -15 2 -98 -77 -29 -27
-51 -45 -49 -39 5 14 77 94 84 94 3 0 18 11 33 25 41 39 144 94 201 107 28 6
51 15 51 19 0 5 -28 17 -62 29 -59 18 -60 20 -21 16 23 -2 70 -18 103 -35 58
-29 63 -29 86 -14 13 8 24 16 24 18 0 1 -13 2 -30 3 -16 0 -30 -4 -30 -9 0 -5
-19 1 -42 15 -24 13 -67 31 -97 40 -89 26 -268 19 -361 -14 -35 -13 -130 -20
-130 -10 0 4 -9 6 -19 3 -11 -3 -27 -1 -37 5 -14 8 -10 10 20 14 20 2 36 0 36
-5 0 -14 119 0 144 16 12 8 68 20 124 27 100 13 103 14 76 28 -15 8 -42 16
-59 17 -18 2 -52 10 -76 18 -64 21 -129 31 -129 19 0 -15 29 -42 45 -42 9 0
12 -6 8 -17 -5 -13 -11 -11 -35 15 -15 18 -32 32 -37 32 -5 0 -11 4 -13 10 -9
26 -405 108 -602 125 -38 3 -73 8 -78 11 -21 13 -194 31 -211 22 -12 -6 -23
-6 -30 0 -7 5 -29 11 -49 14 -31 3 -35 1 -26 -10 19 -23 95 -72 112 -72 13 0
13 3 1 28 -23 43 0 39 59 -12 30 -25 61 -46 70 -46 8 0 22 -9 30 -21 8 -12 19
-18 25 -14 6 3 11 0 11 -7 0 -16 107 -68 139 -68 12 0 34 8 48 18 44 28 171
23 254 -11 36 -15 71 -27 77 -27 7 0 12 -4 12 -10 0 -5 14 -10 30 -10 17 0 30
-4 30 -10 0 -20 -67 -10 -126 19 -85 41 -166 56 -218 41 -44 -13 -81 -27 -108
-41 -23 -12 -31 -11 -23 1 8 12 3 13 -29 0 -17 -6 -26 -6 -26 0 0 6 -12 10
-26 10 -27 0 -128 43 -138 58 -3 5 16 -1 42 -13 51 -24 112 -39 112 -27 0 10
-58 42 -76 42 -7 0 -39 14 -70 30 -30 17 -72 36 -93 43 -20 7 -67 37 -104 66
-37 30 -70 51 -73 49 -6 -7 68 -67 131 -106 28 -18 44 -32 37 -32 -10 0 -168
95 -190 115 -6 5 21 54 28 50 3 -2 42 -6 86 -9z m1949 -72 c18 -12 25 -25 25
-49 0 -42 -19 -57 -79 -63 -44 -4 -51 -2 -66 21 -18 29 -15 85 7 98 22 14 87
10 113 -7z m-4145 -34 c0 -5 -7 -10 -15 -10 -8 0 -15 5 -15 10 0 6 7 10 15 10
8 0 15 -4 15 -10z m-4 -36 c-3 -9 -6 -19 -6 -24 0 -5 -11 -7 -25 -5 -28 3 -34
-11 -7 -18 13 -3 11 -6 -11 -16 -16 -6 -31 -20 -34 -30 -3 -11 -10 -22 -17
-24 -9 -4 -8 8 4 42 20 60 29 73 45 67 8 -3 19 2 25 10 17 19 34 18 26 -2z
m2349 -52 c-3 -3 -11 0 -18 7 -9 10 -8 11 6 5 10 -3 15 -9 12 -12z m1851 -37
c-4 -11 1 -15 19 -15 14 0 25 -4 25 -10 0 -16 28 -12 38 6 8 14 10 14 21 0 18
-22 6 -64 -22 -77 -32 -14 -93 12 -99 44 -5 25 6 67 18 67 3 0 4 -7 0 -15z
m-2156 -21 c0 -14 -4 -23 -9 -20 -5 3 -7 15 -4 26 7 28 13 25 13 -6z m857 -42
c40 -20 68 -39 63 -42 -16 -10 18 -49 56 -65 45 -19 116 -85 92 -85 -10 0 -17
4 -15 9 1 5 -2 9 -6 10 -4 0 -15 7 -23 16 -8 8 -27 18 -42 21 -25 6 -82 54
-65 54 4 1 -3 10 -16 20 -14 12 -18 20 -10 20 11 0 11 2 -1 10 -21 14 -32 12
-25 -2 4 -7 0 -6 -7 2 -17 19 -42 35 -93 60 -36 17 -37 19 -10 14 17 -3 63
-22 102 -42z m-200 18 c-27 -10 -55 -24 -63 -31 -8 -6 -17 -9 -20 -6 -8 8 87
56 111 56 11 0 -2 -8 -28 -19z m-2430 -52 c11 2 14 -1 10 -12 -4 -11 -1 -13
11 -9 15 6 15 5 3 -10 -12 -15 -11 -17 7 -17 12 0 24 -5 27 -10 4 -6 11 -8 16
-5 5 4 9 -3 9 -14 0 -26 17 -28 23 -3 3 11 5 7 6 -10 1 -29 17 -46 24 -26 3
10 7 10 20 -1 9 -7 14 -17 11 -22 -6 -11 20 -39 36 -39 7 0 9 -7 6 -16 -3 -8
-2 -12 4 -9 5 3 17 -3 27 -15 21 -24 41 -27 22 -2 -13 15 -12 16 4 3 26 -21
37 -44 42 -96 2 -25 11 -69 20 -97 18 -63 18 -58 0 -58 -8 0 -14 3 -13 8 1 4
-6 22 -16 41 -17 33 -26 45 -53 76 -7 7 -13 32 -13 54 0 23 -5 41 -11 41 -5 0
-8 4 -4 10 3 5 -3 18 -15 30 -11 11 -20 16 -20 10 0 -5 -4 -10 -10 -10 -5 0
-7 6 -5 13 3 6 1 19 -4 27 -14 20 -56 -4 -72 -41 -6 -16 -14 -29 -18 -29 -10
0 -61 57 -61 69 0 5 -9 18 -19 28 -23 22 -41 83 -41 138 1 38 1 39 16 20 8
-11 22 -19 31 -17z m2200 -4 c17 -13 36 -24 42 -24 6 0 11 -4 11 -9 0 -5 12
-13 27 -18 16 -6 22 -12 16 -16 -9 -6 -117 64 -148 96 -15 15 14 -1 52 -29z
m993 6 c-95 -7 -130 -26 -232 -122 -10 -10 -18 -16 -18 -14 0 2 -14 -9 -31
-25 -18 -16 -33 -28 -35 -26 -6 5 77 89 120 122 20 15 36 33 36 41 0 21 56 32
155 32 l90 -1 -85 -7z m-336 -213 c-3 -8 -12 -18 -20 -21 -11 -4 -10 0 3 18
20 26 27 28 17 3z m-2739 -27 c3 -6 -1 -7 -9 -4 -18 7 -21 14 -7 14 6 0 13 -4
16 -10z m2685 -25 c0 -10 -71 -77 -76 -72 -3 2 9 16 26 30 16 14 30 30 30 36
0 6 5 11 10 11 6 0 10 -2 10 -5z m-3967 -100 c43 -41 62 -85 37 -85 -5 0 -10
7 -10 15 0 8 -7 15 -16 15 -9 0 -14 5 -12 12 2 6 -11 27 -29 46 -18 18 -33 36
-33 38 0 13 22 -1 63 -41z m4709 3 c-7 -7 -12 -8 -12 -2 0 14 12 26 19 19 2
-3 -1 -11 -7 -17z m164 -148 c0 -11 -4 -20 -8 -20 -4 0 -8 9 -8 20 0 11 4 20
8 20 4 0 8 -9 8 -20z m-4736 -62 c0 -17 -15 -7 -27 18 -12 26 -12 26 7 9 11
-10 20 -22 20 -27z m-696 7 c-7 -16 -34 -28 -34 -15 0 6 6 10 13 11 10 0 10 2
0 6 -21 8 -15 22 6 16 11 -3 17 -11 15 -18z m5366 21 c0 -3 -4 -8 -10 -11 -5
-3 -10 -1 -10 4 0 6 5 11 10 11 6 0 10 -2 10 -4z m-93 -25 c0 -11 -7 -17 -14
-14 -9 4 -9 8 0 19 16 17 16 17 14 -5z m-5380 -7 c-3 -3 -12 -4 -19 -1 -8 3
-5 6 6 6 11 1 17 -2 13 -5z m5440 0 c-3 -3 -12 -4 -19 -1 -8 3 -5 6 6 6 11 1
17 -2 13 -5z m-5382 -54 c-3 -5 -12 -10 -18 -10 -7 0 -6 4 3 10 19 12 23 12
15 0z m5500 0 c4 -6 -5 -10 -19 -10 -14 0 -26 5 -26 10 0 6 9 10 19 10 11 0
23 -4 26 -10z m-6555 -40 c11 -11 20 -33 20 -51 0 -18 11 -45 27 -66 41 -54
45 -144 8 -210 -27 -51 -70 -103 -84 -103 -13 0 -39 34 -56 73 -23 54 -19 115
10 166 19 33 24 52 19 77 -3 19 -10 37 -15 40 -13 8 -11 68 3 82 18 18 45 15
68 -8z m1093 3 c-7 -2 -21 -2 -30 0 -10 3 -4 5 12 5 17 0 24 -2 18 -5z m-53
-27 c14 -3 25 -46 11 -46 -3 0 -21 9 -38 20 -38 23 -45 46 -10 36 12 -4 29 -8
37 -10z m64 -51 c9 -25 -11 -25 -22 0 -9 19 -8 23 3 19 7 -3 16 -12 19 -19z
m60 -31 c4 -9 4 -19 1 -22 -3 -3 -5 0 -5 7 0 6 -10 16 -22 21 -23 9 -23 9 -2
9 12 1 25 -6 28 -15z m26 -34 c0 -5 -5 -10 -11 -10 -5 0 -7 5 -4 10 3 6 8 10
11 10 2 0 4 -4 4 -10z m55 -30 c3 -6 -1 -7 -9 -4 -18 7 -21 14 -7 14 6 0 13
-4 16 -10z m-435 -44 c0 -3 -4 -8 -10 -11 -5 -3 -10 -1 -10 4 0 6 5 11 10 11
6 0 10 -2 10 -4z m5725 -86 c-3 -5 -11 -10 -16 -10 -6 0 -7 5 -4 10 3 6 11 10
16 10 6 0 7 -4 4 -10z m325 0 c0 -5 -8 -10 -17 -10 -15 0 -16 2 -3 10 19 12
20 12 20 0z m-6005 -40 c3 -5 1 -10 -4 -10 -6 0 -11 5 -11 10 0 6 2 10 4 10 3
0 8 -4 11 -10z m6085 -121 c0 -5 -4 -9 -10 -9 -5 0 -10 7 -10 16 0 8 5 12 10
9 6 -3 10 -10 10 -16z m-6026 -35 c4 -10 1 -14 -6 -12 -15 5 -23 28 -10 28 5
0 13 -7 16 -16z m-224 -44 c0 -5 -5 -10 -11 -10 -5 0 -7 5 -4 10 3 6 8 10 11
10 2 0 4 -4 4 -10z m-420 -24 c0 -2 -9 -6 -20 -9 -11 -3 -20 -1 -20 4 0 5 9 9
20 9 11 0 20 -2 20 -4z m140 -10 c0 -2 -11 -11 -25 -20 -20 -13 -23 -13 -19
-2 3 8 13 17 22 19 10 3 18 5 20 6 1 0 2 -1 2 -3z m248 -28 c-2 -8 5 -12 16
-10 17 3 18 2 7 -12 -10 -12 -18 -13 -32 -5 -27 14 -24 28 9 38 1 1 1 -5 0
-11z m6209 -124 c-3 -3 -12 -4 -19 -1 -8 3 -5 6 6 6 11 1 17 -2 13 -5z m-6097
-120 c0 -2 -7 -4 -15 -4 -8 0 -15 4 -15 10 0 5 7 7 15 4 8 -4 15 -8 15 -10z
m34 -2 c3 -5 -1 -9 -9 -9 -8 0 -15 4 -15 9 0 4 4 8 9 8 6 0 12 -4 15 -8z
m-634 -73 c0 -4 -4 -11 -10 -14 -5 -3 -10 -2 -10 4 0 6 -8 8 -17 5 -13 -4 -14
-3 -5 3 16 12 42 13 42 2z m6437 -17 c-10 -2 -16 -9 -14 -16 3 -7 -1 -13 -7
-13 -7 0 -34 -15 -60 -33 -25 -18 -49 -31 -52 -27 -3 3 5 11 18 18 12 7 43 29
67 50 25 21 50 35 55 31 7 -4 3 -8 -7 -10z m-6357 -12 c0 -5 -4 -10 -10 -10
-5 0 -10 5 -10 10 0 6 5 10 10 10 6 0 10 -4 10 -10z m80 -80 c0 -5 -4 -10 -10
-10 -5 0 -10 5 -10 10 0 6 5 10 10 10 6 0 10 -4 10 -10z m6460 -2 c0 -4 -7 -8
-15 -8 -8 0 -15 4 -15 8 0 5 7 9 15 9 8 0 15 -4 15 -9z m-5975 -8 c3 -5 2 -10
-4 -10 -5 0 -13 5 -16 10 -3 6 -2 10 4 10 5 0 13 -4 16 -10z m5640 -10 c-3 -5
-11 -10 -16 -10 -6 0 -7 5 -4 10 3 6 11 10 16 10 6 0 7 -4 4 -10z m-5465 -106
c0 -2 -9 0 -20 6 -11 6 -20 13 -20 16 0 2 9 0 20 -6 11 -6 20 -13 20 -16z m56
-35 c3 -6 -5 -3 -20 6 -14 10 -26 19 -26 22 0 7 39 -17 46 -28z m-340 -10 c24
-6 47 -16 51 -22 4 -6 -4 -7 -23 -2 -16 4 -33 8 -39 10 -5 1 -17 5 -25 8 -8 3
-22 8 -30 10 -31 11 21 7 66 -4z m5994 1 c0 -5 -2 -10 -4 -10 -3 0 -8 5 -11
10 -3 6 -1 10 4 10 6 0 11 -4 11 -10z m-5841 -46 c11 -10 -8 -9 -44 3 l-40 13
40 -6 c22 -3 42 -8 44 -10z m5651 6 c0 -5 -7 -10 -15 -10 -8 0 -15 5 -15 10 0
6 7 10 15 10 8 0 15 -4 15 -10z m-5609 -28 c-7 -2 -18 1 -23 6 -8 8 -4 9 13 5
13 -4 18 -8 10 -11z m119 -38 c23 -9 39 -18 37 -20 -2 -3 -24 4 -48 15 -54 24
-45 27 11 5z m-470 -14 c0 -5 -5 -10 -11 -10 -5 0 -7 5 -4 10 3 6 8 10 11 10
2 0 4 -4 4 -10z m-77 -27 c-4 -9 -10 -10 -24 -2 -25 13 -24 17 5 15 14 0 22
-6 19 -13z m122 8 c3 -5 1 -12 -5 -16 -5 -3 -10 -1 -10 5 0 6 -5 8 -12 4 -7
-4 -8 -3 -4 4 9 14 23 15 31 3z m500 -9 c-3 -3 -11 0 -18 7 -9 10 -8 11 6 5
10 -3 15 -9 12 -12z m5555 8 c0 -5 -2 -10 -4 -10 -3 0 -8 5 -11 10 -3 6 -1 10
4 10 6 0 11 -4 11 -10z m250 0 c0 -5 -4 -10 -10 -10 -5 0 -10 5 -10 10 0 6 5
10 10 10 6 0 10 -4 10 -10z m-6375 -10 c-3 -5 -12 -10 -18 -10 -7 0 -6 4 3 10
19 12 23 12 15 0z m6187 -12 c13 3 17 0 12 -11 -4 -12 -11 -14 -29 -7 -13 5
-25 7 -27 4 -3 -2 -5 3 -5 11 0 9 5 11 15 6 8 -5 23 -6 34 -3z m-6212 -18 c0
-5 -4 -10 -10 -10 -5 0 -10 5 -10 10 0 6 5 10 10 10 6 0 10 -4 10 -10z m57 -6
c-3 -3 -12 -4 -19 -1 -8 3 -5 6 6 6 11 1 17 -2 13 -5z m6128 -14 c-3 -5 -12
-10 -18 -10 -7 0 -6 4 3 10 19 12 23 12 15 0z m-6640 -10 c-3 -5 -11 -10 -16
-10 -6 0 -7 5 -4 10 3 6 11 10 16 10 6 0 7 -4 4 -10z m540 0 c3 -5 1 -10 -4
-10 -6 0 -11 5 -11 10 0 6 2 10 4 10 3 0 8 -4 11 -10z m5940 -60 c-3 -5 -11
-10 -16 -10 -6 0 -7 5 -4 10 3 6 11 10 16 10 6 0 7 -4 4 -10z m-1604 -157 c30
-18 41 -40 15 -30 -8 3 -31 9 -50 13 -39 7 -47 20 -18 27 9 3 19 5 20 6 2 0
17 -7 33 -16z m-4634 -39 c-3 -3 -12 -4 -19 -1 -8 3 -5 6 6 6 11 1 17 -2 13
-5z m4652 -18 c35 -8 71 -22 80 -31 15 -16 14 -17 -9 -12 -14 3 -70 11 -125
18 -55 7 -102 13 -104 15 -1 1 0 7 4 13 9 15 77 13 154 -3z m-4614 -10 c14 -8
23 -16 18 -19 -4 -3 -19 3 -32 14 -28 23 -23 24 14 5z m6462 -12 c-3 -3 -12
-4 -19 -1 -8 3 -5 6 6 6 11 1 17 -2 13 -5z m-6397 -21 c0 -3 -5 -3 -12 -1 -6
2 -24 -9 -39 -24 -20 -22 -28 -25 -32 -14 -7 17 1 26 24 26 9 0 19 7 23 15 5
13 36 11 36 -2z m6460 7 c0 -19 -43 -32 -70 -21 -25 10 -25 10 -2 12 36 3 40
4 48 12 11 10 24 9 24 -3z m-6003 -16 c-3 -3 -12 -4 -19 -1 -8 3 -5 6 6 6 11
1 17 -2 13 -5z m4098 -10 c66 -8 123 -21 127 -27 13 -20 9 -30 -8 -23 -9 4
-88 14 -175 23 -127 14 -156 20 -147 30 14 17 58 16 203 -3z m1515 -4 c0 -5
-7 -10 -16 -10 -8 0 -12 5 -9 10 3 6 10 10 16 10 5 0 9 -4 9 -10z m295 0 c3
-6 -1 -7 -9 -4 -18 7 -21 14 -7 14 6 0 13 -4 16 -10z m-6500 -10 c3 -5 1 -10
-4 -10 -6 0 -11 5 -11 10 0 6 2 10 4 10 3 0 8 -4 11 -10z m198 -76 c-3 -9 2
-12 16 -9 12 2 18 -1 15 -8 -2 -7 -20 -12 -39 -13 -22 0 -34 3 -32 10 3 6 10
10 17 8 7 -2 10 3 7 11 -3 7 1 14 8 14 7 0 11 -6 8 -13z m6179 -81 c-6 -2 -9
-10 -5 -16 3 -7 3 -9 -2 -5 -4 4 -14 3 -21 -3 -9 -8 -11 -5 -7 10 3 13 13 21
27 20 11 0 15 -3 8 -6z"/>
<path d="M3846 4161 c-3 -5 1 -12 10 -15 22 -8 25 -4 9 11 -8 7 -16 9 -19 4z"/>
<path d="M3906 4144 c-3 -7 2 -10 15 -7 22 6 26 20 4 20 -8 0 -16 -6 -19 -13z"/>
<path d="M4580 4056 c0 -2 7 -7 16 -10 8 -3 12 -2 9 4 -6 10 -25 14 -25 6z"/>
<path d="M4505 4032 c-54 -6 -46 -18 14 -20 38 -2 62 2 67 9 5 9 2 10 -11 6
-9 -4 -23 -4 -29 1 -6 4 -24 6 -41 4z"/>
<path d="M4500 3990 c0 -5 9 -14 20 -20 11 -6 20 -9 20 -8 0 2 -9 11 -20 21
-11 9 -20 13 -20 7z"/>
<path d="M4610 3996 c0 -2 7 -6 15 -10 8 -3 15 -1 15 4 0 6 -7 10 -15 10 -8 0
-15 -2 -15 -4z"/>
<path d="M4730 3980 c-13 -8 -12 -10 3 -10 9 0 17 5 17 10 0 12 -1 12 -20 0z"/>
<path d="M4340 3950 c0 -5 7 -10 16 -10 8 0 12 5 9 10 -3 6 -10 10 -16 10 -5
0 -9 -4 -9 -10z"/>
<path d="M4600 3950 c0 -5 5 -10 10 -10 6 0 10 5 10 10 0 6 -4 10 -10 10 -5 0
-10 -4 -10 -10z"/>
<path d="M4330 3900 c0 -5 5 -10 11 -10 5 0 7 5 4 10 -3 6 -8 10 -11 10 -2 0
-4 -4 -4 -10z"/>
<path d="M4120 3880 c8 -5 22 -9 30 -9 10 0 8 3 -5 9 -27 12 -43 12 -25 0z"/>
<path d="M4277 3884 c-12 -12 -8 -24 8 -24 9 0 12 -6 8 -17 -4 -11 -3 -14 5
-9 15 9 15 18 -1 40 -7 9 -16 14 -20 10z"/>
<path d="M4158 3853 c7 -3 16 -2 19 1 4 3 -2 6 -13 5 -11 0 -14 -3 -6 -6z"/>
<path d="M4210 3820 c0 -5 5 -10 11 -10 5 0 7 5 4 10 -3 6 -8 10 -11 10 -2 0
-4 -4 -4 -10z"/>
<path d="M3101 3343 c-1 -18 19 -27 32 -13 9 10 8 12 -5 7 -9 -3 -19 -1 -22 6
-3 9 -5 9 -5 0z"/>
<path d="M3225 2890 c-3 -6 1 -7 9 -4 18 7 21 14 7 14 -6 0 -13 -4 -16 -10z"/>
<path d="M5270 2786 c0 -2 7 -6 15 -10 8 -3 15 -1 15 4 0 6 -7 10 -15 10 -8 0
-15 -2 -15 -4z"/>
<path d="M1088 7180 c17 -11 32 -25 32 -32 0 -13 39 31 40 45 0 4 -24 7 -52 7
l-53 0 33 -20z"/>
<path d="M1675 7183 c4 -10 12 -40 18 -68 12 -58 41 -105 65 -105 15 -1 15 -2
-1 -11 -12 -7 -16 -17 -12 -30 4 -10 7 -32 7 -49 1 -22 6 -30 19 -30 21 0 28
10 31 44 1 14 5 26 8 26 3 0 18 12 34 26 26 23 27 28 17 51 -7 14 -12 57 -12
95 l0 68 -91 0 c-82 0 -89 -2 -83 -17z"/>
<path d="M5993 7168 c-40 -44 -45 -62 -22 -82 11 -9 23 -16 27 -16 10 0 47 59
60 98 10 30 9 32 -12 32 -12 0 -36 -14 -53 -32z"/>
<path d="M4823 7157 c-30 -38 -63 -52 -120 -48 -40 2 -54 -1 -59 -12 -3 -8
-34 -36 -70 -62 -72 -53 -72 -68 -2 -66 69 2 74 4 138 65 58 56 63 58 102 53
22 -3 44 -11 48 -17 14 -23 50 21 50 61 0 54 -53 69 -87 26z"/>
<path d="M3638 7095 c-11 -11 19 -100 36 -103 17 -4 22 13 7 22 -5 3 -8 17 -8
32 0 25 -24 60 -35 49z"/>
<path d="M887 7037 c-3 -8 -1 -20 4 -28 8 -12 10 -12 18 0 10 15 4 41 -9 41
-4 0 -10 -6 -13 -13z"/>
<path d="M5956 7034 c-9 -23 -7 -46 3 -40 5 3 9 17 9 31 0 29 -3 31 -12 9z"/>
<path d="M867 6984 c-14 -14 -7 -35 11 -32 9 2 17 10 17 17 0 16 -18 25 -28
15z"/>
<path d="M7162 6948 c-7 -7 -12 -22 -12 -35 0 -13 -4 -23 -10 -23 -5 0 -10 -7
-10 -16 0 -8 5 -12 11 -8 8 5 9 -5 4 -34 -8 -48 7 -82 35 -82 19 0 20 7 20
105 0 107 -7 124 -38 93z"/>
<path d="M875 6890 c3 -5 8 -10 11 -10 2 0 4 5 4 10 0 6 -5 10 -11 10 -5 0 -7
-4 -4 -10z"/>
<path d="M1778 6813 c-24 -6 -23 -19 2 -26 15 -4 20 0 20 14 0 10 -1 18 -2 18
-2 -1 -11 -3 -20 -6z"/>
<path d="M3329 6762 c-3 -20 -2 -29 4 -23 5 5 7 19 5 32 -3 20 -5 19 -9 -9z"/>
<path d="M2475 6580 c-3 -5 1 -10 9 -10 9 0 16 5 16 10 0 6 -4 10 -9 10 -6 0
-13 -4 -16 -10z"/>
<path d="M1315 5690 c3 -5 8 -10 11 -10 2 0 4 5 4 10 0 6 -5 10 -11 10 -5 0
-7 -4 -4 -10z"/>
<path d="M1420 5667 c0 -30 10 -40 27 -26 7 6 13 9 13 5 0 -3 9 2 19 11 11 9
17 21 14 26 -3 5 -10 4 -16 -2 -14 -14 -40 -15 -32 -1 3 6 -1 10 -9 10 -10 0
-16 -9 -16 -23z"/>
<path d="M1340 5640 c0 -5 5 -10 11 -10 5 0 7 5 4 10 -3 6 -8 10 -11 10 -2 0
-4 -4 -4 -10z"/>
<path d="M1310 5607 c0 -13 6 -29 13 -36 10 -11 9 -13 -1 -7 -18 11 -36 -42
-20 -61 9 -11 9 -16 0 -22 -7 -4 -8 -12 -2 -21 8 -13 10 -12 10 3 0 9 5 17 11
17 7 0 10 12 7 29 -4 24 -1 29 18 29 13 0 25 -6 28 -14 3 -8 0 -11 -8 -8 -17
6 -30 -12 -20 -27 5 -8 9 -8 14 1 4 7 13 9 20 5 9 -6 9 -9 -1 -16 -9 -6 6 -9
40 -9 l53 0 -16 25 c-9 14 -14 30 -11 35 3 6 3 10 -2 10 -11 0 -33 49 -33 72
0 19 -36 26 -42 7 -2 -7 -12 -7 -31 0 -24 10 -27 8 -27 -12z"/>
<path d="M1503 5478 c1 -6 10 -20 21 -31 23 -25 43 -9 27 22 -12 22 -53 30
-48 9z"/>
<path d="M4716 5481 c8 -8 43 -8 38 0 -2 4 -13 7 -24 6 -10 -1 -17 -3 -14 -6z"/>
<path d="M3698 5463 c6 -2 18 -2 25 0 6 3 1 5 -13 5 -14 0 -19 -2 -12 -5z"/>
<path d="M4836 5455 c-3 -9 -10 -13 -16 -10 -5 3 -10 2 -10 -4 0 -17 16 -21
33 -8 11 8 14 17 8 25 -7 11 -9 10 -15 -3z"/>
<path d="M3810 5440 c25 -8 87 -13 79 -6 -2 2 -26 6 -54 9 -34 4 -42 3 -25 -3z"/>
<path d="M4465 5440 c3 -5 8 -10 11 -10 2 0 4 5 4 10 0 6 -5 10 -11 10 -5 0
-7 -4 -4 -10z"/>
<path d="M3923 5423 c9 -2 23 -2 30 0 6 3 -1 5 -18 5 -16 0 -22 -2 -12 -5z"/>
<path d="M4620 5413 c0 -9 74 -41 85 -37 20 8 7 27 -14 20 -14 -5 -14 -4 1 7
16 12 12 14 -27 13 -25 -1 -45 -2 -45 -3z"/>
<path d="M1235 5400 c-3 -6 1 -7 9 -4 18 7 21 14 7 14 -6 0 -13 -4 -16 -10z"/>
<path d="M4730 5370 c0 -5 5 -10 11 -10 5 0 7 5 4 10 -3 6 -8 10 -11 10 -2 0
-4 -4 -4 -10z"/>
<path d="M4220 5365 c0 -9 74 -36 90 -32 10 3 8 5 -6 6 -11 0 -29 8 -40 16
-18 14 -44 20 -44 10z"/>
<path d="M4667 5349 c3 -10 9 -16 14 -13 13 8 11 21 -5 27 -10 4 -12 0 -9 -14z"/>
<path d="M4826 5359 c3 -5 -1 -9 -8 -9 -20 -1 23 -30 44 -30 10 0 18 5 18 11
0 5 -4 7 -10 4 -5 -3 -10 0 -10 8 0 8 -9 17 -20 20 -11 3 -18 1 -14 -4z"/>
<path d="M3968 5323 c7 -3 16 -2 19 1 4 3 -2 6 -13 5 -11 0 -14 -3 -6 -6z"/>
<path d="M3638 5293 c7 -3 16 -2 19 1 4 3 -2 6 -13 5 -11 0 -14 -3 -6 -6z"/>
<path d="M3683 5283 c9 -2 23 -2 30 0 6 3 -1 5 -18 5 -16 0 -22 -2 -12 -5z"/>
<path d="M3731 5275 c12 -12 186 -48 309 -64 41 -5 117 -15 168 -22 51 -6 95
-9 99 -5 3 3 -6 6 -21 6 -15 0 -36 5 -47 11 -11 5 -59 12 -107 15 -48 2 -98 7
-112 10 -30 8 -41 10 -105 19 -27 3 -68 10 -90 15 -87 19 -100 21 -94 15z"/>
<path d="M1228 5228 c-15 -18 -42 -36 -59 -42 -18 -6 -34 -17 -37 -24 -2 -7 2
-10 12 -6 10 4 16 1 16 -7 0 -8 12 -25 25 -38 14 -12 22 -28 19 -33 -4 -6 -1
-9 7 -6 7 2 22 -4 33 -14 15 -14 22 -15 28 -6 5 9 8 9 8 2 0 -6 18 -16 40 -22
40 -10 40 -10 40 19 0 18 5 29 14 29 17 0 6 70 -15 97 -8 10 -18 24 -24 31
-25 33 -37 41 -50 36 -8 -4 -15 -1 -15 5 0 18 -14 11 -42 -21z"/>
<path d="M4665 5230 c3 -5 12 -10 20 -10 8 0 18 -7 23 -16 5 -9 15 -15 22 -12
8 2 -1 13 -22 26 -38 24 -53 28 -43 12z"/>
<path d="M1040 5190 c-6 -21 -14 -41 -19 -44 -5 -3 -7 -17 -5 -31 4 -37 36
-125 46 -125 4 0 8 -7 8 -15 0 -8 7 -15 15 -15 8 0 15 8 15 18 0 10 6 24 13
31 10 10 9 11 -5 6 -14 -6 -18 -2 -18 19 0 14 4 26 9 26 5 0 8 8 7 18 0 9 5
16 12 15 6 -2 12 4 12 13 0 8 -4 13 -9 10 -14 -9 -20 16 -9 37 5 10 5 17 0 17
-5 0 -15 14 -22 30 -17 41 -37 38 -50 -10z"/>
<path d="M1935 5170 c-3 -6 1 -7 9 -4 18 7 21 14 7 14 -6 0 -13 -4 -16 -10z"/>
<path d="M4328 5173 c7 -3 16 -2 19 1 4 3 -2 6 -13 5 -11 0 -14 -3 -6 -6z"/>
<path d="M1567 5157 c-6 -17 15 -45 31 -40 20 8 15 53 -7 53 -10 0 -21 -6 -24
-13z"/>
<path d="M1556 5064 c-4 -15 -5 -29 -1 -32 3 -3 5 0 5 7 0 13 25 42 35 41 3
-1 11 1 18 3 6 3 -2 6 -19 6 -26 1 -33 -4 -38 -25z"/>
<path d="M3553 5033 c-7 -2 -13 -13 -13 -24 0 -10 -7 -19 -15 -19 -8 0 -15 -4
-15 -9 0 -13 50 -9 51 4 1 19 21 34 37 29 14 -5 13 -2 -2 10 -21 17 -24 17
-43 9z"/>
<path d="M1340 4990 c0 -5 5 -10 10 -10 6 0 10 5 10 10 0 6 -4 10 -10 10 -5 0
-10 -4 -10 -10z"/>
<path d="M3585 4960 c-3 -6 1 -7 9 -4 18 7 21 14 7 14 -6 0 -13 -4 -16 -10z"/>
<path d="M2745 4820 c3 -5 12 -7 20 -3 21 7 19 13 -6 13 -11 0 -18 -4 -14 -10z"/>
<path d="M1117 4704 c-4 -4 -4 -10 -1 -15 6 -10 34 0 34 12 0 10 -24 12 -33 3z"/>
<path d="M2401 4681 c-28 -5 -32 -8 -20 -18 11 -9 20 -8 39 7 14 11 23 19 20
18 -3 0 -20 -3 -39 -7z"/>
<path d="M2526 4509 c3 -6 -9 -23 -27 -38 -19 -16 -29 -32 -25 -39 10 -17 26
-15 26 2 0 11 9 13 35 9 23 -4 35 -2 35 6 0 20 -30 71 -41 71 -6 0 -7 -5 -3
-11z"/>
<path d="M3305 4320 c-3 -5 -1 -10 4 -10 6 0 11 5 11 10 0 6 -2 10 -4 10 -3 0
-8 -4 -11 -10z"/>
<path d="M1900 3991 c0 -11 -7 -26 -15 -35 -10 -10 -14 -28 -11 -57 4 -49 17
-57 84 -58 l42 -1 0 49 c0 44 -4 52 -40 85 -45 41 -60 45 -60 17z"/>
<path d="M2180 3960 c-24 -24 -26 -53 -5 -70 12 -10 15 -10 15 4 0 9 8 16 19
16 23 0 44 24 39 46 -5 25 -45 27 -68 4z"/>
<path d="M2093 3945 c-14 -15 -17 -38 -7 -48 10 -9 46 41 39 53 -8 13 -17 12
-32 -5z"/>
<path d="M2066 3835 c-28 -28 -25 -55 5 -55 19 0 39 34 39 66 0 21 -16 17 -44
-11z"/>
<path d="M2465 3820 c3 -5 8 -10 11 -10 2 0 4 5 4 10 0 6 -5 10 -11 10 -5 0
-7 -4 -4 -10z"/>
<path d="M2455 2870 c-3 -5 -17 -10 -30 -10 -12 0 -25 -7 -29 -15 -3 -8 -10
-15 -16 -15 -6 0 -9 3 -7 8 3 4 -12 8 -33 10 -21 1 -41 -2 -45 -7 -3 -6 -29
-8 -58 -5 l-52 4 35 -14 c47 -20 99 -20 106 -1 4 8 11 15 16 15 6 0 6 -6 -1
-14 -10 -12 -6 -14 23 -13 20 0 33 3 31 5 -2 3 12 14 33 24 44 24 61 38 45 38
-7 0 -15 -4 -18 -10z"/>
<path d="M1933 2784 c-18 -8 -33 -16 -33 -19 0 -5 70 22 79 30 8 9 -14 4 -46
-11z"/>
<path d="M6961 2337 c-8 -11 -5 -19 12 -35 l22 -21 2 35 c3 36 -14 46 -36 21z"/>
<path d="M1267 2269 c7 -7 15 -10 18 -7 3 3 -2 9 -12 12 -14 6 -15 5 -6 -5z"/>
<path d="M1125 2250 c3 -5 13 -10 21 -10 8 0 12 5 9 10 -3 6 -13 10 -21 10 -8
0 -12 -4 -9 -10z"/>
<path d="M6797 2219 c7 -7 15 -10 18 -7 3 3 -2 9 -12 12 -14 6 -15 5 -6 -5z"/>
<path d="M1205 2200 c-3 -5 -1 -10 4 -10 6 0 11 5 11 10 0 6 -2 10 -4 10 -3 0
-8 -4 -11 -10z"/>
<path d="M1168 2183 c7 -3 16 -2 19 1 4 3 -2 6 -13 5 -11 0 -14 -3 -6 -6z"/>
<path d="M1205 2170 c3 -5 10 -10 16 -10 5 0 9 5 9 10 0 6 -7 10 -16 10 -8 0
-12 -4 -9 -10z"/>
<path d="M1336 2155 c4 -8 18 -15 32 -15 25 0 25 1 6 15 -25 19 -45 19 -38 0z"/>
<path d="M1100 2080 c0 -5 5 -10 10 -10 6 0 10 5 10 10 0 6 -4 10 -10 10 -5 0
-10 -4 -10 -10z"/>
<path d="M768 1893 c7 -3 16 -2 19 1 4 3 -2 6 -13 5 -11 0 -14 -3 -6 -6z"/>
<path d="M658 1743 c7 -3 16 -2 19 1 4 3 -2 6 -13 5 -11 0 -14 -3 -6 -6z"/>
<path d="M7151 1118 c-1 -12 -7 -16 -18 -12 -12 4 -9 -1 7 -15 30 -25 48 -27
29 -4 -12 15 -12 16 3 10 10 -3 20 -2 23 3 4 6 -3 10 -14 10 -10 0 -22 6 -24
13 -3 7 -6 5 -6 -5z"/>
<path d="M7115 1059 c-4 -6 -14 -8 -22 -4 -13 4 -14 3 -3 -10 10 -12 10 -15
-5 -15 -12 0 -15 -5 -11 -16 4 -9 2 -22 -4 -29 -8 -9 -8 -15 0 -20 5 -3 10 -1
10 6 0 10 3 10 12 1 17 -17 33 -15 18 3 -10 12 -10 15 4 15 9 0 16 -4 16 -9 0
-5 6 -8 13 -7 24 6 47 18 47 27 0 13 -38 11 -42 -2 -3 -8 -13 -7 -33 4 -20 11
-24 16 -13 17 11 0 15 5 12 15 -5 11 -2 13 10 9 11 -4 16 -1 16 10 0 18 -15
21 -25 5z"/>
<path d="M7178 1053 c7 -3 16 -2 19 1 4 3 -2 6 -13 5 -11 0 -14 -3 -6 -6z"/>
<path d="M37 923 c-10 -10 -8 -81 2 -87 5 -3 9 17 9 44 1 52 0 55 -11 43z"/>
<path d="M131 914 c0 -11 3 -14 6 -6 3 7 2 16 -1 19 -3 4 -6 -2 -5 -13z"/>
<path d="M7090 910 c0 -5 7 -7 15 -4 8 4 15 8 15 10 0 2 -7 4 -15 4 -8 0 -15
-4 -15 -10z"/>
<path d="M446 741 c-10 -11 -32 -22 -50 -24 -27 -3 -25 -4 10 -5 35 -2 43 2
52 23 14 30 11 31 -12 6z"/>
<path d="M7098 743 c7 -3 16 -2 19 1 4 3 -2 6 -13 5 -11 0 -14 -3 -6 -6z"/>
<path d="M7160 710 c-9 -6 -10 -10 -3 -10 6 0 15 5 18 10 8 12 4 12 -15 0z"/>
<path d="M248 703 c7 -3 16 -2 19 1 4 3 -2 6 -13 5 -11 0 -14 -3 -6 -6z"/>
<path d="M7166 634 c-6 -16 2 -18 22 -5 11 7 11 9 -1 14 -9 3 -18 -1 -21 -9z"/>
<path d="M7080 630 c-8 -5 -10 -10 -5 -10 6 0 17 5 25 10 8 5 11 10 5 10 -5 0
-17 -5 -25 -10z"/>
<path d="M7105 520 c3 -5 8 -10 11 -10 2 0 4 5 4 10 0 6 -5 10 -11 10 -5 0 -7
-4 -4 -10z"/>
<path d="M7110 429 c0 -5 5 -7 10 -4 6 3 10 8 10 11 0 2 -4 4 -10 4 -5 0 -10
-5 -10 -11z"/>
<path d="M7075 410 c-4 -6 -12 -7 -18 -3 -7 4 -6 0 2 -10 7 -9 17 -14 22 -11
5 3 8 0 7 -7 -2 -7 5 -14 14 -17 16 -3 16 -1 2 27 -17 34 -20 36 -29 21z"/>
<path d="M7155 410 c3 -5 8 -10 11 -10 2 0 4 5 4 10 0 6 -5 10 -11 10 -5 0 -7
-4 -4 -10z"/>
<path d="M355 370 c3 -5 8 -10 11 -10 2 0 4 5 4 10 0 6 -5 10 -11 10 -5 0 -7
-4 -4 -10z"/>
<path d="M7028 373 c7 -3 16 -2 19 1 4 3 -2 6 -13 5 -11 0 -14 -3 -6 -6z"/>
<path d="M378 303 c7 -3 16 -2 19 1 4 3 -2 6 -13 5 -11 0 -14 -3 -6 -6z"/>
</g>
</svg>
