<?xml version="1.0" standalone="no"?>
<!DOCTYPE svg PUBLIC "-//W3C//DTD SVG 20010904//EN"
 "http://www.w3.org/TR/2001/REC-SVG-20010904/DTD/svg10.dtd">
<svg version="1.0" xmlns="http://www.w3.org/2000/svg"
 width="600.000000pt" height="600.000000pt" viewBox="0 0 600.000000 600.000000"
 preserveAspectRatio="xMidYMid meet">
<metadata>
Created by potrace 1.14, written by Peter Selinger 2001-2017
</metadata>
<g transform="translate(0.000000,600.000000) scale(0.100000,-0.100000)"
fill="#000000" stroke="none">
<path d="M5352 5984 c-8 -9 -11 -22 -6 -32 4 -9 6 -23 5 -31 -2 -12 3 -11 23
3 14 9 26 12 26 6 0 -7 6 -7 18 -1 85 46 183 21 236 -60 25 -37 28 -49 24
-106 -4 -60 -7 -68 -40 -96 -27 -24 -38 -43 -43 -76 -8 -47 1 -60 40 -61 11 0
45 -25 75 -55 30 -30 67 -59 82 -66 15 -6 25 -16 22 -24 -6 -14 36 -25 97 -25
21 0 41 -4 44 -10 3 -5 15 -10 26 -10 18 0 19 9 19 260 0 251 -1 260 -20 260
-29 0 -70 21 -70 37 0 8 -5 11 -11 8 -14 -9 -49 29 -58 63 l-7 27 -235 2
c-199 2 -236 0 -247 -13z"/>
<path d="M1654 5612 c-105 -106 -124 -143 -123 -252 0 -41 4 -84 9 -95 5 -13
8 11 8 65 0 47 5 96 11 110 l10 25 1 -25 2 -25 9 25 c6 17 7 6 3 -35 -2 -33
-6 -100 -8 -150 l-4 -90 8 90 c9 111 33 211 65 278 13 28 21 55 18 60 -4 6 -1
7 7 2 8 -5 11 -3 8 6 -2 7 5 21 16 30 12 10 18 20 15 23 -3 4 -28 -16 -55 -42z"/>
<path d="M2630 5639 c-171 -10 -275 -25 -359 -51 -98 -30 -287 -128 -360 -187
-35 -28 -66 -49 -69 -46 -3 3 23 35 58 70 36 36 60 65 54 65 -18 0 -148 -91
-197 -139 -54 -52 -123 -160 -133 -208 -6 -28 -3 -33 17 -37 175 -36 409 -108
371 -114 -12 -2 -54 1 -92 7 -114 18 -205 14 -253 -10 -138 -71 -265 -214
-364 -409 -40 -78 -42 -56 -7 59 31 101 72 191 121 263 l35 53 -57 -55 c-126
-121 -201 -281 -251 -540 -19 -101 -33 -329 -25 -414 l6 -69 57 -19 c64 -22
152 -92 144 -115 -3 -8 -2 -11 4 -8 5 3 16 -8 25 -24 13 -25 14 -60 9 -223 -7
-204 0 -337 19 -361 10 -13 22 -14 71 -6 32 5 71 16 87 25 26 13 29 20 29 62
0 70 17 212 41 339 16 84 25 114 38 117 56 17 204 36 218 27 14 -7 17 -33 17
-192 1 -165 3 -189 22 -230 32 -70 77 -113 156 -152 134 -66 447 -135 654
-144 155 -7 214 7 273 66 43 43 98 146 136 256 16 44 35 86 44 93 23 19 140
12 174 -11 26 -17 27 -20 27 -118 0 -117 17 -208 66 -350 38 -112 41 -145 9
-142 -90 11 -185 -14 -185 -48 0 -11 -7 -19 -15 -19 -24 0 -17 -35 13 -68 22
-23 32 -28 45 -20 10 5 23 7 30 4 7 -3 3 -8 -10 -11 -13 -4 -20 -11 -17 -16 3
-5 0 -10 -5 -10 -6 -1 -15 -2 -20 -3 -10 -1 -51 -50 -51 -61 0 -4 20 -5 45 -2
70 7 167 60 219 118 55 61 72 110 58 162 -6 20 -8 37 -6 37 3 0 50 -13 105
-30 115 -34 271 -65 377 -76 l73 -7 -6 -46 c-53 -414 -139 -661 -307 -886
-106 -142 -282 -303 -414 -381 -111 -65 -255 -90 -424 -74 -237 24 -446 92
-692 227 -184 100 -275 169 -434 327 -168 168 -252 287 -305 431 l-19 50 6
-43 c4 -33 3 -42 -8 -40 -28 6 -12 -75 35 -172 28 -59 48 -116 52 -150 14
-126 113 -399 215 -596 139 -267 249 -425 414 -590 121 -121 171 -160 181
-144 4 6 3 9 -2 8 -10 -3 -63 36 -63 47 0 3 5 3 10 0 6 -3 10 -2 10 3 0 16
-13 22 -27 11 -10 -9 -13 -8 -13 3 0 8 -10 20 -22 25 -23 11 -23 11 5 22 35
14 57 14 57 1 0 -6 32 -10 76 -10 64 0 79 -3 94 -20 15 -17 16 -26 7 -60 -6
-21 -8 -42 -5 -46 13 -12 46 7 52 30 5 22 75 118 135 186 17 19 28 27 25 18
-10 -30 38 -64 49 -35 4 8 6 6 6 -4 2 -28 -47 -168 -73 -213 -32 -55 -106
-123 -161 -147 -92 -41 -238 -42 -390 -4 -361 91 -758 493 -939 952 -38 95
-90 283 -102 368 -4 27 -13 55 -20 63 -12 11 -14 6 -14 -30 0 -24 -4 -48 -9
-53 -6 -6 -11 -32 -13 -59 -3 -48 -3 -49 -52 -68 -27 -10 -66 -32 -87 -48 -20
-17 -42 -30 -47 -30 -6 0 -14 21 -17 47 -4 27 -11 64 -15 83 -7 32 -8 32 -9 8
-1 -19 -6 -28 -17 -28 -14 0 -15 -10 -9 -78 l7 -77 -74 -39 c-140 -75 -499
-297 -715 -444 -35 -24 -47 -56 -16 -45 40 15 154 82 257 150 60 40 113 73
117 73 4 0 12 -8 18 -17 5 -10 13 -14 18 -9 4 5 2 11 -4 13 -22 8 -14 33 10
33 18 0 23 5 23 21 -1 12 8 26 19 33 11 6 26 19 33 29 7 9 34 29 60 43 26 14
74 41 106 60 32 19 60 33 61 32 1 -2 7 -18 14 -35 8 -18 20 -33 27 -33 8 0 14
-10 14 -21 0 -16 5 -20 20 -16 13 3 20 0 20 -8 0 -8 8 -12 19 -10 16 3 25 -13
55 -92 20 -52 33 -100 29 -106 -3 -5 -2 -7 3 -4 6 3 30 -31 55 -75 24 -45 72
-124 107 -176 34 -51 59 -98 56 -104 -4 -6 -2 -8 3 -5 11 7 46 -39 46 -60 0
-7 3 -10 7 -8 10 6 102 -130 144 -214 21 -41 48 -93 62 -116 14 -24 22 -50 18
-59 -4 -10 1 -18 15 -24 11 -4 37 -34 57 -67 20 -33 55 -90 78 -127 l41 -68
47 0 c27 0 48 3 48 6 0 7 -207 311 -237 348 -29 35 -56 86 -46 86 5 0 41 -27
81 -60 98 -80 227 -164 337 -219 49 -25 93 -46 98 -47 4 -1 9 -3 12 -4 3 -1 8
-3 13 -4 33 -8 51 -19 46 -28 -5 -7 0 -9 14 -6 11 3 49 -1 84 -10 98 -23 364
-22 448 2 36 10 75 20 88 21 12 1 29 10 36 21 8 10 18 16 22 11 4 -4 3 -7 -3
-7 -6 0 -8 -11 -5 -25 3 -16 11 -25 23 -25 14 0 19 -7 19 -30 0 -28 2 -30 40
-30 22 0 40 5 40 10 0 6 -9 10 -20 10 -17 0 -20 7 -20 40 0 33 -3 40 -20 40
-11 0 -20 7 -20 16 0 9 -5 13 -12 9 -7 -4 -4 1 7 9 11 9 25 14 32 12 7 -3 12
-2 10 3 -1 4 21 27 50 49 28 23 67 60 87 84 45 55 73 87 64 73 -4 -7 -5 -15
-1 -18 3 -4 1 -7 -7 -7 -17 0 -5 -76 15 -97 8 -8 15 -28 15 -44 0 -16 5 -29
10 -29 6 0 10 8 10 18 0 22 34 74 43 65 4 -3 7 6 7 21 0 18 4 25 11 20 12 -7
7 -82 -10 -137 -5 -18 -14 -58 -19 -89 l-8 -57 623 -1 623 0 0 33 c0 131 -62
368 -120 460 -17 26 -59 79 -94 116 -35 37 -72 83 -82 102 l-19 34 -5 -70 c-4
-52 -8 -66 -15 -54 -5 9 -82 65 -170 124 -88 60 -179 125 -202 145 -23 20 -99
77 -170 126 -153 106 -273 201 -273 214 0 6 12 10 26 10 39 0 172 47 242 87
88 48 243 175 338 275 193 204 328 474 388 773 21 105 44 279 46 342 0 6 13
16 29 21 43 15 113 83 144 140 14 26 47 102 73 168 25 65 54 128 64 139 10 11
23 44 30 73 10 46 10 56 -5 78 -19 30 -90 77 -151 100 l-43 16 5 87 c8 131 11
144 55 202 60 80 96 165 114 263 18 104 19 157 5 245 -6 35 -9 66 -6 68 8 9
66 -115 81 -174 17 -66 19 -143 5 -192 -5 -19 -8 -36 -6 -38 7 -7 65 94 81
142 37 113 11 302 -60 433 -19 34 -32 62 -29 62 13 0 101 -71 146 -117 25 -26
61 -70 78 -98 l32 -50 -6 68 c-13 132 -94 294 -207 409 -65 66 -56 68 56 9 39
-19 96 -61 129 -93 l59 -56 -7 45 c-18 137 -190 361 -359 468 -42 26 -76 49
-74 51 7 7 227 -51 275 -72 102 -46 104 -47 92 -24 -14 27 -103 96 -159 125
-70 34 -186 74 -286 97 -77 18 -129 21 -369 24 -153 2 -280 5 -282 7 -6 6 91
26 174 36 41 5 76 11 78 14 3 3 -16 13 -43 22 -115 41 -119 48 -35 65 31 6 73
16 92 21 36 9 163 80 156 87 -10 9 -446 -33 -716 -69 -163 -22 -267 -48 -394
-99 -98 -39 -109 -38 -55 5 54 43 124 81 192 106 64 23 38 24 -79 4 -120 -21
-184 -41 -281 -85 -116 -54 -217 -122 -301 -204 -61 -58 -71 -66 -62 -41 29
76 78 150 134 203 122 114 219 164 404 208 59 14 108 27 109 28 6 5 -327 2
-437 -5z m279 -649 c92 -23 133 -42 291 -133 168 -97 225 -120 278 -112 25 4
52 9 61 11 9 2 -1 -4 -22 -14 l-38 -19 53 -6 c29 -4 109 0 178 9 69 8 157 17
195 21 l71 6 47 -53 c46 -51 98 -131 125 -194 12 -27 11 -28 -8 -23 -11 3 -20
2 -20 -3 0 -4 16 -50 36 -101 46 -120 70 -232 84 -399 6 -74 15 -155 20 -180
8 -44 8 -44 -8 -20 -55 86 -207 178 -340 205 -108 22 -207 20 -242 -5 -26 -19
-150 -206 -150 -227 0 -5 64 -17 143 -28 246 -31 382 -73 511 -155 117 -76 93
-81 -105 -25 -185 53 -353 78 -481 73 -80 -3 -89 -5 -117 -32 -17 -17 -31 -35
-31 -40 -1 -34 -16 -37 -91 -17 -41 11 -97 23 -125 26 -51 6 -52 7 -57 46 -3
22 -12 51 -21 64 -49 75 -255 139 -676 211 -119 20 -189 26 -300 26 -148 0
-154 -1 -423 -64 -48 -11 -91 -18 -94 -14 -4 3 1 41 11 84 18 77 19 77 110
167 87 85 156 171 156 194 0 5 18 31 40 56 62 72 54 79 -47 43 -34 -12 -65
-20 -68 -16 -6 6 87 184 125 238 25 36 151 286 174 344 l19 49 136 -6 c112 -4
141 -2 166 11 70 37 293 38 434 2z m-645 -1199 c18 -7 18 -8 -5 -24 -51 -36
-142 -134 -160 -172 -26 -56 -25 -112 2 -120 11 -4 22 -5 23 -3 1 1 15 24 29
50 15 26 31 49 35 52 4 2 8 -21 8 -52 1 -141 62 -231 168 -251 106 -19 195 29
246 133 28 56 32 75 32 141 -1 61 -6 88 -24 126 -24 46 -24 47 -4 37 79 -42
142 -125 186 -245 26 -72 28 -75 40 -53 21 39 8 175 -23 243 -14 31 -24 57
-22 57 2 0 41 -12 87 -26 101 -32 152 -59 168 -90 29 -54 -20 -283 -87 -406
-15 -27 -42 -63 -60 -79 -31 -26 -40 -29 -107 -29 -85 0 -291 25 -385 46 -92
21 -260 73 -302 95 -20 10 -48 32 -62 48 -44 52 -58 205 -36 381 12 98 26 126
72 139 39 11 154 13 181 2z m202 -137 c31 -30 27 -67 -12 -101 -33 -30 -52
-29 -86 4 -33 32 -35 61 -7 97 27 35 71 35 105 0z m1119 -154 c-3 -5 -15 -15
-26 -20 -15 -8 -19 -7 -19 4 0 13 14 21 43 25 5 0 5 -3 2 -9z m501 -74 c102
-35 104 -36 104 -57 0 -10 -9 -40 -19 -67 -29 -73 -61 -256 -61 -347 0 -44 -3
-90 -6 -103 -7 -26 3 -26 -212 4 -179 26 -381 95 -404 138 -19 34 -23 244 -6
286 15 35 15 35 10 -28 -6 -84 13 -146 58 -193 35 -38 39 -39 102 -39 54 0 72
5 104 26 48 33 59 46 90 111 16 33 27 78 30 120 5 59 2 74 -19 116 -13 26 -22
47 -20 47 2 0 17 -7 32 -15 69 -35 119 -140 128 -267 3 -43 9 -78 14 -78 4 0
18 13 32 30 49 58 42 213 -13 307 -11 18 -18 33 -16 33 1 0 34 -11 72 -24z
m-363 -57 c20 -28 16 -49 -19 -83 -37 -37 -94 -1 -94 59 0 59 74 75 113 24z
m602 -26 c19 -9 35 -22 35 -28 0 -11 -108 -40 -117 -32 -6 7 27 77 37 77 5 0
25 -8 45 -17z m15 -247 c-35 -107 -85 -200 -124 -233 l-31 -26 -3 49 c-5 65 8
247 18 263 7 12 75 25 146 30 21 1 21 0 -6 -83z m-3555 -1656 c-3 -5 -14 -10
-23 -10 -15 0 -15 2 -2 10 20 13 33 13 25 0z m206 -100 c21 0 39 -4 39 -10 0
-5 6 -10 13 -10 18 0 67 -24 67 -32 0 -5 9 -8 19 -8 11 0 22 -6 24 -12 4 -10
8 -10 16 1 8 12 11 9 17 -15 7 -29 76 -155 102 -186 8 -9 11 -22 6 -29 -4 -7
-3 -10 2 -7 5 4 19 -8 32 -25 118 -165 159 -216 251 -309 58 -59 110 -108 114
-108 5 0 34 -20 66 -45 72 -56 199 -129 273 -157 32 -11 55 -25 52 -30 -4 -6
1 -8 12 -4 11 3 35 2 53 -4 73 -21 236 -32 313 -21 41 6 83 13 94 17 16 5 16
4 4 -5 -12 -8 -8 -11 20 -12 19 0 29 -3 23 -6 -7 -2 -13 -18 -13 -34 0 -28 1
-29 50 -29 28 0 50 5 50 10 0 6 14 10 30 10 17 0 30 -5 30 -11 0 -8 12 -10 35
-6 19 3 35 5 35 3 0 -10 -92 -66 -100 -61 -6 4 -9 1 -8 -6 2 -7 -31 -24 -79
-41 -214 -75 -483 -49 -736 71 -140 67 -190 98 -312 192 -263 203 -482 499
-619 836 -49 119 -55 140 -30 105 11 -16 25 -22 55 -22z m1230 -537 c13 -16
12 -17 -3 -4 -17 13 -22 21 -14 21 2 0 10 -8 17 -17z m1127 -200 c-28 -58 -32
-63 -52 -57 -19 6 -19 5 -7 -10 18 -22 2 -34 -37 -30 -15 2 -19 1 -9 -2 16 -5
18 -12 12 -42 -4 -21 -11 -38 -16 -40 -5 -2 -9 -64 -9 -138 0 -83 -4 -134 -10
-134 -5 0 -10 -11 -10 -25 0 -14 -4 -25 -10 -25 -5 0 -10 9 -10 20 0 13 -7 20
-19 20 -15 0 -21 -9 -24 -38 -3 -20 -3 -4 -1 37 2 41 4 136 4 212 l0 138 53
26 c28 14 72 41 97 60 48 36 53 39 48 28z m-552 -330 c-10 -10 -19 5 -10 18 6
11 8 11 12 0 2 -7 1 -15 -2 -18z m39 17 c3 -5 1 -10 -4 -10 -6 0 -11 5 -11 10
0 6 2 10 4 10 3 0 8 -4 11 -10z"/>
<path d="M2397 4280 c-97 -20 -163 -53 -274 -136 -64 -48 -183 -175 -183 -195
0 -5 15 -2 33 6 72 30 210 49 357 49 164 -1 256 -12 450 -55 149 -34 215 -34
258 -2 71 52 148 197 122 228 -17 20 -210 82 -328 105 -133 26 -313 26 -435 0z"/>
<path d="M3192 4187 c-6 -15 -15 -40 -18 -55 -14 -57 -68 -144 -116 -184 -27
-22 -47 -43 -44 -45 6 -7 79 33 113 61 16 13 41 49 56 79 23 45 28 65 25 113
-3 56 -4 58 -16 31z"/>
<path d="M3267 4200 c-3 -8 -10 -37 -17 -65 -20 -86 -51 -144 -98 -185 -48
-42 -45 -55 4 -18 40 31 52 46 79 103 26 53 50 147 42 168 -3 8 -6 8 -10 -3z"/>
<path d="M3453 3963 c-46 -98 -89 -187 -95 -198 l-11 -20 23 20 c35 31 195
375 174 375 -3 0 -44 -80 -91 -177z"/>
<path d="M3607 4000 c-36 -42 -133 -227 -124 -237 3 -3 10 -2 16 1 21 14 165
276 151 276 -5 0 -24 -18 -43 -40z"/>
<path d="M2250 3269 c32 -28 116 -67 161 -74 24 -4 16 1 -27 18 -34 13 -83 36
-110 51 -41 23 -45 24 -24 5z"/>
<path d="M2445 311 c-15 -6 -9 -8 23 -9 23 0 51 -4 62 -7 11 -4 20 -2 20 4 0
6 -8 11 -17 12 -10 0 -29 2 -43 4 -14 2 -34 0 -45 -4z"/>
<path d="M2308 303 c7 -3 16 -2 19 1 4 3 -2 6 -13 5 -11 0 -14 -3 -6 -6z"/>
<path d="M2510 275 c0 -8 5 -15 10 -15 6 0 10 7 10 15 0 8 -4 15 -10 15 -5 0
-10 -7 -10 -15z"/>
<path d="M3181 384 c0 -11 3 -14 6 -6 3 7 2 16 -1 19 -3 4 -6 -2 -5 -13z"/>
<path d="M3182 315 c0 -16 2 -22 5 -12 2 9 2 23 0 30 -3 6 -5 -1 -5 -18z"/>
<path d="M5976 4958 c-15 -46 -18 -77 -14 -174 3 -78 9 -128 19 -144 13 -23
14 -17 17 78 1 57 1 146 0 199 l-3 96 -19 -55z"/>
<path d="M1080 3571 c0 -5 22 -47 50 -93 27 -46 50 -89 50 -96 0 -7 -26 -24
-58 -38 -49 -21 -64 -34 -95 -82 -37 -58 -45 -82 -27 -82 6 0 10 4 10 9 0 15
146 83 171 79 27 -3 26 -2 8 -105 -10 -56 -10 -80 -1 -111 17 -55 111 -176
141 -180 42 -6 47 14 11 54 -69 79 -81 135 -65 299 12 123 -27 236 -107 311
-33 31 -88 53 -88 35z"/>
<path d="M1008 2810 c6 -8 12 -20 12 -28 0 -8 6 -20 14 -26 9 -7 11 -18 6 -31
-5 -11 -9 -14 -9 -7 -1 6 -6 12 -13 12 -6 0 -1 -11 12 -25 12 -13 27 -22 33
-18 6 3 7 1 3 -5 -9 -14 46 -55 119 -88 41 -19 82 -29 132 -32 40 -3 76 -9 79
-14 3 -5 14 -48 24 -96 10 -48 23 -98 28 -112 11 -25 11 -25 11 7 1 17 -3 33
-9 35 -11 3 -15 154 -5 210 4 22 2 44 -5 55 -10 16 -11 15 -7 -9 3 -17 0 -25
-6 -21 -6 3 -35 7 -66 9 -107 6 -208 54 -311 148 -30 28 -49 44 -42 36z"/>
<path d="M2941 2680 c-25 -11 -51 -18 -59 -15 -12 4 -12 3 -3 -9 23 -28 67
-37 162 -34 103 3 117 14 67 51 -39 29 -113 32 -167 7z"/>
<path d="M2354 2441 c-43 -20 -124 -86 -124 -102 0 -15 27 -10 74 13 l45 22
118 -56 c162 -77 307 -121 570 -174 262 -52 419 -67 477 -44 44 16 29 30 -31
30 -60 0 -682 123 -813 161 -87 25 -234 90 -245 109 -5 9 2 21 21 37 l29 23
-40 0 c-22 0 -59 -9 -81 -19z"/>
<path d="M2810 2007 c0 -25 42 -53 62 -41 6 4 8 2 5 -3 -9 -14 4 -18 95 -33
80 -13 200 -5 148 10 l-25 7 28 8 c15 4 26 9 24 12 -5 4 -224 47 -294 57 -40
6 -43 5 -43 -17z"/>
<path d="M470 1155 c0 -8 5 -15 10 -15 6 0 10 7 10 15 0 8 -4 15 -10 15 -5 0
-10 -7 -10 -15z"/>
<path d="M670 1060 c0 -33 -3 -40 -20 -40 -13 0 -20 -7 -20 -20 0 -17 7 -20
40 -20 33 0 40 -3 40 -20 0 -18 7 -20 60 -20 53 0 60 2 60 20 0 13 -7 20 -20
20 -17 0 -20 7 -20 40 l0 40 -40 0 c-33 0 -40 3 -40 20 0 13 -7 20 -20 20 -17
0 -20 -7 -20 -40z"/>
<path d="M0 691 l0 -60 58 -11 c64 -13 199 -66 209 -83 4 -6 -1 -8 -13 -5 -16
4 -19 -1 -21 -34 -2 -32 0 -38 17 -38 13 0 20 -7 20 -20 0 -17 -7 -20 -40 -20
l-40 0 0 50 c0 43 -3 50 -20 50 -11 0 -20 -4 -20 -10 0 -5 -7 -10 -15 -10 -8
0 -15 -9 -15 -20 0 -11 -4 -20 -10 -20 -5 0 -10 -9 -10 -20 0 -11 -7 -20 -15
-20 -8 0 -15 7 -15 15 0 8 -9 15 -20 15 -11 0 -20 -7 -20 -15 0 -8 -7 -15 -15
-15 -13 0 -15 -30 -15 -210 l0 -210 486 0 485 0 -22 33 c-104 147 -498 462
-636 508 -19 6 -33 13 -30 15 16 16 212 -80 327 -161 103 -72 261 -232 354
-358 l28 -37 104 0 c57 0 104 3 104 8 0 27 -138 316 -172 358 -4 6 -6 20 -2
30 4 14 3 15 -4 6 -7 -10 -12 -6 -22 18 -11 26 -36 50 -54 50 -8 0 -3 -44 7
-58 11 -14 8 -19 -13 -22 -34 -5 -60 1 -60 13 0 7 -18 24 -40 37 -22 14 -40
29 -40 34 0 4 -7 5 -16 2 -9 -4 -26 6 -44 25 -25 28 -29 29 -33 13 -4 -16 -12
47 -8 69 0 4 -3 6 -8 5 -5 -2 -16 5 -23 15 -7 10 -23 19 -35 20 -12 0 -19 5
-17 9 3 4 -2 8 -11 8 -9 0 -14 4 -11 9 7 11 -70 44 -149 65 -33 8 -112 18
-175 21 -63 3 -150 8 -192 10 l-78 5 0 -59z m267 -177 c-3 -3 -12 -4 -19 -1
-8 3 -5 6 6 6 11 1 17 -2 13 -5z m707 -160 c3 -8 2 -12 -4 -9 -6 3 -10 10 -10
16 0 14 7 11 14 -7z m54 -119 c-3 -3 -9 2 -12 12 -6 14 -5 15 5 6 7 -7 10 -15
7 -18z m-283 -85 c3 -5 1 -10 -4 -10 -6 0 -11 5 -11 10 0 6 2 10 4 10 3 0 8
-4 11 -10z m20 -30 c3 -5 1 -10 -4 -10 -6 0 -11 5 -11 10 0 6 2 10 4 10 3 0 8
-4 11 -10z m322 -22 c-3 -8 -6 -5 -6 6 -1 11 2 17 5 13 3 -3 4 -12 1 -19z"/>
<path d="M850 655 c0 -2 10 -10 23 -16 20 -11 21 -11 8 4 -13 16 -31 23 -31
12z"/>
<path d="M740 565 c13 -14 26 -25 28 -25 3 0 -5 11 -18 25 -13 14 -26 25 -28
25 -3 0 5 -11 18 -25z"/>
<path d="M43 563 c26 -2 45 -8 43 -12 -3 -4 0 -8 7 -8 7 0 31 -3 55 -7 23 -4
42 -4 42 1 0 11 -119 34 -162 31 -22 -1 -18 -3 15 -5z"/>
<path d="M1400 316 c0 -2 7 -7 16 -10 8 -3 12 -2 9 4 -6 10 -25 14 -25 6z"/>
<path d="M4430 238 c-6 -24 -22 -77 -35 -118 -13 -41 -25 -85 -28 -98 l-5 -22
174 0 c151 0 174 2 167 15 -30 53 -235 265 -257 265 -3 0 -10 -19 -16 -42z"/>
<path d="M1471 214 c0 -11 3 -14 6 -6 3 7 2 16 -1 19 -3 4 -6 -2 -5 -13z"/>
<path d="M2640 40 c0 -15 7 -20 25 -20 18 0 25 5 25 20 0 15 -7 20 -25 20 -18
0 -25 -5 -25 -20z"/>
</g>
</svg>
